<?xml version="1.0" encoding="UTF-8" standalone="no"?>
<!DOCTYPE svg PUBLIC "-//W3C//DTD SVG 1.1//EN"
 "http://www.w3.org/Graphics/SVG/1.1/DTD/svg11.dtd">
<!-- Generated by graphviz version 2.38.0 (20140413.2041)
 -->
<!-- Title: unnamed Pages: 1 -->
<svg width="426pt" height="337pt"
 viewBox="0.00 0.00 425.50 337.00" xmlns="http://www.w3.org/2000/svg" xmlns:xlink="http://www.w3.org/1999/xlink">
<g id="graph0" class="graph" transform="scale(1 1) rotate(0) translate(4 333)">
<title>unnamed</title>
<polygon fill="white" stroke="none" points="-4,4 -4,-333 421.5,-333 421.5,4 -4,4"/>
<!-- Node0xbf3eab0 -->
<g id="node1" class="node"><title>Node0xbf3eab0</title>
<polygon fill="none" stroke="black" points="84,-292.5 84,-328.5 212,-328.5 212,-292.5 84,-292.5"/>
<text text-anchor="middle" x="148" y="-306.8" font-family="Times,serif" font-size="14.00">CompoundStmt</text>
</g>
<!-- Node0xbf3e9a8 -->
<g id="node2" class="node"><title>Node0xbf3e9a8</title>
<polygon fill="none" stroke="black" points="45.5,-219.5 45.5,-255.5 128.5,-255.5 128.5,-219.5 45.5,-219.5"/>
<text text-anchor="middle" x="87" y="-233.8" font-family="Times,serif" font-size="14.00">DeclStmt</text>
</g>
<!-- Node0xbf3eab0&#45;&gt;Node0xbf3e9a8 -->
<g id="edge1" class="edge"><title>Node0xbf3eab0&#45;&gt;Node0xbf3e9a8</title>
<path fill="none" stroke="black" d="M133.234,-292.313C125.741,-283.592 116.504,-272.84 108.261,-263.246"/>
<polygon fill="black" stroke="black" points="110.802,-260.833 101.63,-255.529 105.492,-265.395 110.802,-260.833"/>
</g>
<!-- Node0xbf3ea90 -->
<g id="node3" class="node"><title>Node0xbf3ea90</title>
<polygon fill="none" stroke="black" points="164,-219.5 164,-255.5 256,-255.5 256,-219.5 164,-219.5"/>
<text text-anchor="middle" x="210" y="-233.8" font-family="Times,serif" font-size="14.00">WhileStmt</text>
</g>
<!-- Node0xbf3eab0&#45;&gt;Node0xbf3ea90 -->
<g id="edge2" class="edge"><title>Node0xbf3eab0&#45;&gt;Node0xbf3ea90</title>
<path fill="none" stroke="black" d="M163.008,-292.313C170.624,-283.592 180.013,-272.84 188.391,-263.246"/>
<polygon fill="black" stroke="black" points="191.189,-265.363 195.13,-255.529 185.916,-260.759 191.189,-265.363"/>
</g>
<!-- Node0xbf3e988 -->
<g id="node4" class="node"><title>Node0xbf3e988</title>
<polygon fill="none" stroke="black" points="10,-146.5 10,-182.5 128,-182.5 128,-146.5 10,-146.5"/>
<text text-anchor="middle" x="69" y="-160.8" font-family="Times,serif" font-size="14.00">IntegerLiteral</text>
</g>
<!-- Node0xbf3e9a8&#45;&gt;Node0xbf3e988 -->
<g id="edge3" class="edge"><title>Node0xbf3e9a8&#45;&gt;Node0xbf3e988</title>
<path fill="none" stroke="black" d="M82.6427,-219.313C80.5865,-211.202 78.0851,-201.336 75.7884,-192.277"/>
<polygon fill="black" stroke="black" points="79.1674,-191.362 73.3172,-182.529 72.382,-193.082 79.1674,-191.362"/>
</g>
<!-- Node0xbf3ea20 -->
<g id="node5" class="node"><title>Node0xbf3ea20</title>
<polygon fill="none" stroke="black" points="146,-146.5 146,-182.5 274,-182.5 274,-146.5 146,-146.5"/>
<text text-anchor="middle" x="210" y="-160.8" font-family="Times,serif" font-size="14.00">BinaryOperator</text>
</g>
<!-- Node0xbf3ea90&#45;&gt;Node0xbf3ea20 -->
<g id="edge4" class="edge"><title>Node0xbf3ea90&#45;&gt;Node0xbf3ea20</title>
<path fill="none" stroke="black" d="M210,-219.313C210,-211.289 210,-201.547 210,-192.569"/>
<polygon fill="black" stroke="black" points="213.5,-192.529 210,-182.529 206.5,-192.529 213.5,-192.529"/>
</g>
<!-- Node0xbf3ea70 -->
<g id="node6" class="node"><title>Node0xbf3ea70</title>
<polygon fill="none" stroke="black" points="292.5,-146.5 292.5,-182.5 417.5,-182.5 417.5,-146.5 292.5,-146.5"/>
<text text-anchor="middle" x="355" y="-160.8" font-family="Times,serif" font-size="14.00">UnaryOperator</text>
</g>
<!-- Node0xbf3ea90&#45;&gt;Node0xbf3ea70 -->
<g id="edge5" class="edge"><title>Node0xbf3ea90&#45;&gt;Node0xbf3ea70</title>
<path fill="none" stroke="black" d="M244.731,-219.494C264.582,-209.773 289.675,-197.487 310.907,-187.09"/>
<polygon fill="black" stroke="black" points="312.608,-190.155 320.05,-182.614 309.529,-183.868 312.608,-190.155"/>
</g>
<!-- Node0xbf3ea08 -->
<g id="node8" class="node"><title>Node0xbf3ea08</title>
<polygon fill="none" stroke="black" points="0,-73.5 0,-109.5 140,-109.5 140,-73.5 0,-73.5"/>
<text text-anchor="middle" x="70" y="-87.8" font-family="Times,serif" font-size="14.00">ImplicitCastExpr</text>
</g>
<!-- Node0xbf3ea20&#45;&gt;Node0xbf3ea08 -->
<g id="edge6" class="edge"><title>Node0xbf3ea20&#45;&gt;Node0xbf3ea08</title>
<path fill="none" stroke="black" d="M176.467,-146.494C157.386,-136.817 133.289,-124.597 112.848,-114.23"/>
<polygon fill="black" stroke="black" points="114.247,-111.015 103.745,-109.614 111.081,-117.258 114.247,-111.015"/>
</g>
<!-- Node0xbf3e9e8 -->
<g id="node9" class="node"><title>Node0xbf3e9e8</title>
<polygon fill="none" stroke="black" points="158,-73.5 158,-109.5 276,-109.5 276,-73.5 158,-73.5"/>
<text text-anchor="middle" x="217" y="-87.8" font-family="Times,serif" font-size="14.00">IntegerLiteral</text>
</g>
<!-- Node0xbf3ea20&#45;&gt;Node0xbf3e9e8 -->
<g id="edge7" class="edge"><title>Node0xbf3ea20&#45;&gt;Node0xbf3e9e8</title>
<path fill="none" stroke="black" d="M211.695,-146.313C212.486,-138.289 213.446,-128.547 214.331,-119.569"/>
<polygon fill="black" stroke="black" points="217.823,-119.824 215.321,-109.529 210.857,-119.137 217.823,-119.824"/>
</g>
<!-- Node0xbf3ea48 -->
<g id="node11" class="node"><title>Node0xbf3ea48</title>
<polygon fill="none" stroke="black" points="301.5,-73.5 301.5,-109.5 408.5,-109.5 408.5,-73.5 301.5,-73.5"/>
<text text-anchor="middle" x="355" y="-87.8" font-family="Times,serif" font-size="14.00">DeclRefExpr</text>
</g>
<!-- Node0xbf3ea70&#45;&gt;Node0xbf3ea48 -->
<g id="edge9" class="edge"><title>Node0xbf3ea70&#45;&gt;Node0xbf3ea48</title>
<path fill="none" stroke="black" d="M355,-146.313C355,-138.289 355,-128.547 355,-119.569"/>
<polygon fill="black" stroke="black" points="358.5,-119.529 355,-109.529 351.5,-119.529 358.5,-119.529"/>
</g>
<!-- Node0x0 -->
<g id="node7" class="node"><title>Node0x0</title>
<polygon fill="none" stroke="black" points="230,-292.5 230,-328.5 314,-328.5 314,-292.5 230,-292.5"/>
<text text-anchor="middle" x="272" y="-306.8" font-family="Times,serif" font-size="14.00">&lt;NULL&gt;</text>
</g>
<!-- Node0xbf3e9c0 -->
<g id="node10" class="node"><title>Node0xbf3e9c0</title>
<polygon fill="none" stroke="black" points="16.5,-0.5 16.5,-36.5 123.5,-36.5 123.5,-0.5 16.5,-0.5"/>
<text text-anchor="middle" x="70" y="-14.8" font-family="Times,serif" font-size="14.00">DeclRefExpr</text>
</g>
<!-- Node0xbf3ea08&#45;&gt;Node0xbf3e9c0 -->
<g id="edge8" class="edge"><title>Node0xbf3ea08&#45;&gt;Node0xbf3e9c0</title>
<path fill="none" stroke="black" d="M70,-73.3129C70,-65.2895 70,-55.5475 70,-46.5691"/>
<polygon fill="black" stroke="black" points="73.5001,-46.5288 70,-36.5288 66.5001,-46.5289 73.5001,-46.5288"/>
</g>
</g>
</svg>
