<?xml version="1.0" encoding="UTF-8" standalone="no"?>
<!DOCTYPE svg PUBLIC "-//W3C//DTD SVG 1.1//EN"
 "http://www.w3.org/Graphics/SVG/1.1/DTD/svg11.dtd">
<!-- Generated by graphviz version 2.38.0 (20140413.2041)
 -->
<!-- Title: unnamed Pages: 1 -->
<svg width="378pt" height="433pt"
 viewBox="0.00 0.00 378.00 433.00" xmlns="http://www.w3.org/2000/svg" xmlns:xlink="http://www.w3.org/1999/xlink">
<g id="graph0" class="graph" transform="scale(1 1) rotate(0) translate(4 429)">
<title>unnamed</title>
<polygon fill="white" stroke="none" points="-4,4 -4,-429 374,-429 374,4 -4,4"/>
<!-- Node0xbf8b980 -->
<g id="node1" class="node"><title>Node0xbf8b980</title>
<polygon fill="none" stroke="black" points="136,-82 136,-118 234,-118 234,-82 136,-82"/>
<text text-anchor="start" x="144" y="-96.3" font-family="Times,serif" font-size="14.00">[B0 (EXIT)]</text>
</g>
<!-- Node0xbf8ba58 -->
<g id="node2" class="node"><title>Node0xbf8ba58</title>
<polygon fill="none" stroke="black" points="179,-0.5 179,-36.5 233,-36.5 233,-0.5 179,-0.5"/>
<text text-anchor="start" x="187" y="-14.8" font-family="Times,serif" font-size="14.00">[B1]</text>
</g>
<!-- Node0xbf8bc08 -->
<g id="node3" class="node"><title>Node0xbf8bc08</title>
<polygon fill="none" stroke="black" points="-2.84217e-14,-163.5 -2.84217e-14,-261.5 370,-261.5 370,-163.5 -2.84217e-14,-163.5"/>
<text text-anchor="start" x="8" y="-246.3" font-family="Times,serif" font-size="14.00">[B3]</text>
<text text-anchor="start" x="8" y="-231.3" font-family="Times,serif" font-size="14.00"> 1: i</text>
<text text-anchor="start" x="8" y="-216.3" font-family="Times,serif" font-size="14.00"> 2: [B3.1] (ImplicitCastExpr, LValueToRValue, int)</text>
<text text-anchor="start" x="8" y="-201.3" font-family="Times,serif" font-size="14.00"> 3: 10</text>
<text text-anchor="start" x="8" y="-186.3" font-family="Times,serif" font-size="14.00"> 4: [B3.2] &lt;= [B3.3]</text>
<text text-anchor="start" x="8" y="-171.3" font-family="Times,serif" font-size="14.00"> T: while [B3.4]</text>
</g>
<!-- Node0xbf8ba58&#45;&gt;Node0xbf8bc08 -->
<g id="edge1" class="edge"><title>Node0xbf8ba58&#45;&gt;Node0xbf8bc08</title>
<path fill="none" stroke="black" d="M178.733,-29.8807C160.476,-38.4344 137.868,-52.5142 127,-73 113.115,-99.1723 122.99,-129.404 138.265,-154.932"/>
<polygon fill="black" stroke="black" points="135.319,-156.821 143.626,-163.396 141.232,-153.075 135.319,-156.821"/>
</g>
<!-- Node0xbf8bc08&#45;&gt;Node0xbf8b980 -->
<g id="edge4" class="edge"><title>Node0xbf8bc08&#45;&gt;Node0xbf8b980</title>
<path fill="none" stroke="black" d="M185,-163.355C185,-151.355 185,-138.9 185,-128.306"/>
<polygon fill="black" stroke="black" points="188.5,-128.037 185,-118.037 181.5,-128.037 188.5,-128.037"/>
</g>
<!-- Node0xbf8bb30 -->
<g id="node4" class="node"><title>Node0xbf8bb30</title>
<polygon fill="none" stroke="black" points="251.5,-73.5 251.5,-126.5 358.5,-126.5 358.5,-73.5 251.5,-73.5"/>
<text text-anchor="start" x="259.5" y="-111.3" font-family="Times,serif" font-size="14.00">[B2]</text>
<text text-anchor="start" x="259.5" y="-96.3" font-family="Times,serif" font-size="14.00"> 1: i</text>
<text text-anchor="start" x="259.5" y="-81.3" font-family="Times,serif" font-size="14.00"> 2: [B2.1]++</text>
</g>
<!-- Node0xbf8bc08&#45;&gt;Node0xbf8bb30 -->
<g id="edge3" class="edge"><title>Node0xbf8bc08&#45;&gt;Node0xbf8bb30</title>
<path fill="none" stroke="black" d="M237.285,-163.355C248.257,-153.251 259.579,-142.826 269.75,-133.459"/>
<polygon fill="black" stroke="black" points="272.293,-135.875 277.279,-126.527 267.552,-130.726 272.293,-135.875"/>
</g>
<!-- Node0xbf8bb30&#45;&gt;Node0xbf8ba58 -->
<g id="edge2" class="edge"><title>Node0xbf8bb30&#45;&gt;Node0xbf8ba58</title>
<path fill="none" stroke="black" d="M273.131,-73.4081C260.914,-63.5979 247.05,-52.4642 235.105,-42.8725"/>
<polygon fill="black" stroke="black" points="237.175,-40.046 227.187,-36.5136 232.792,-45.504 237.175,-40.046"/>
</g>
<!-- Node0xbf8bd00 -->
<g id="node5" class="node"><title>Node0xbf8bd00</title>
<polygon fill="none" stroke="black" points="134,-298.5 134,-351.5 236,-351.5 236,-298.5 134,-298.5"/>
<text text-anchor="start" x="142" y="-336.3" font-family="Times,serif" font-size="14.00">[B4]</text>
<text text-anchor="start" x="142" y="-321.3" font-family="Times,serif" font-size="14.00"> 1: 0</text>
<text text-anchor="start" x="142" y="-306.3" font-family="Times,serif" font-size="14.00"> 2: int i = 0;</text>
</g>
<!-- Node0xbf8bd00&#45;&gt;Node0xbf8bc08 -->
<g id="edge5" class="edge"><title>Node0xbf8bd00&#45;&gt;Node0xbf8bc08</title>
<path fill="none" stroke="black" d="M185,-298.371C185,-290.318 185,-281.073 185,-271.714"/>
<polygon fill="black" stroke="black" points="188.5,-271.565 185,-261.565 181.5,-271.565 188.5,-271.565"/>
</g>
<!-- Node0xbf8bdf8 -->
<g id="node6" class="node"><title>Node0xbf8bdf8</title>
<polygon fill="none" stroke="black" points="128.5,-388.5 128.5,-424.5 241.5,-424.5 241.5,-388.5 128.5,-388.5"/>
<text text-anchor="start" x="136.5" y="-402.8" font-family="Times,serif" font-size="14.00">[B5 (ENTRY)]</text>
</g>
<!-- Node0xbf8bdf8&#45;&gt;Node0xbf8bd00 -->
<g id="edge6" class="edge"><title>Node0xbf8bdf8&#45;&gt;Node0xbf8bd00</title>
<path fill="none" stroke="black" d="M185,-388.25C185,-380.486 185,-371.014 185,-361.825"/>
<polygon fill="black" stroke="black" points="188.5,-361.676 185,-351.676 181.5,-361.676 188.5,-361.676"/>
</g>
</g>
</svg>
