<?xml version="1.0" encoding="UTF-8" standalone="no"?>
<!DOCTYPE svg PUBLIC "-//W3C//DTD SVG 1.1//EN"
 "http://www.w3.org/Graphics/SVG/1.1/DTD/svg11.dtd">
<!-- Generated by graphviz version 2.38.0 (20140413.2041)
 -->
<!-- Title: %3 Pages: 1 -->
<svg width="2403pt" height="1844pt"
 viewBox="0.00 0.00 2403.21 1844.00" xmlns="http://www.w3.org/2000/svg" xmlns:xlink="http://www.w3.org/1999/xlink">
<g id="graph0" class="graph" transform="scale(1 1) rotate(0) translate(4 1840)">
<title>%3</title>
<polygon fill="white" stroke="none" points="-4,4 -4,-1840 2399.21,-1840 2399.21,4 -4,4"/>
<!-- 0 -->
<g id="node1" class="node"><title>0</title>
<ellipse fill="red" stroke="red" cx="434" cy="-1818" rx="27" ry="18"/>
<text text-anchor="middle" x="434" y="-1814.3" font-family="Times,serif" font-size="14.00">0</text>
</g>
<!-- 4 -->
<g id="node2" class="node"><title>4</title>
<ellipse fill="red" stroke="red" cx="1821" cy="-1746" rx="27" ry="18"/>
<text text-anchor="middle" x="1821" y="-1742.3" font-family="Times,serif" font-size="14.00">4</text>
</g>
<!-- 0&#45;&gt;4 -->
<g id="edge40" class="edge"><title>0&#45;&gt;4</title>
<path fill="none" stroke="black" d="M460.849,-1815.54C633.407,-1806.52 1584.24,-1758.53 1784.15,-1748.74"/>
<polygon fill="black" stroke="black" points="1784.34,-1752.24 1794.15,-1748.26 1784,-1745.25 1784.34,-1752.24"/>
</g>
<!-- 8 -->
<g id="node8" class="node"><title>8</title>
<ellipse fill="red" stroke="red" cx="644" cy="-1170" rx="27" ry="18"/>
<text text-anchor="middle" x="644" y="-1166.3" font-family="Times,serif" font-size="14.00">8</text>
</g>
<!-- 0&#45;&gt;8 -->
<g id="edge58" class="edge"><title>0&#45;&gt;8</title>
<path fill="none" stroke="black" d="M426.492,-1800.34C415.418,-1774.2 396,-1721.7 396,-1675 396,-1675 396,-1675 396,-1529 396,-1459.49 450.036,-1460.87 490,-1404 544.997,-1325.73 554.902,-1303.57 608,-1224 614.298,-1214.56 621.292,-1204.23 627.428,-1195.22"/>
<polygon fill="black" stroke="black" points="630.478,-1196.96 633.221,-1186.72 624.695,-1193.01 630.478,-1196.96"/>
</g>
<!-- 16 -->
<g id="node17" class="node"><title>16</title>
<ellipse fill="red" stroke="red" cx="644" cy="-1242" rx="27" ry="18"/>
<text text-anchor="middle" x="644" y="-1238.3" font-family="Times,serif" font-size="14.00">16</text>
</g>
<!-- 0&#45;&gt;16 -->
<g id="edge35" class="edge"><title>0&#45;&gt;16</title>
<path fill="none" stroke="black" d="M446.75,-1802.11C485.621,-1755.15 600,-1604.58 600,-1459 600,-1459 600,-1459 600,-1385 600,-1342.52 618.189,-1295.96 631.177,-1268.14"/>
<polygon fill="black" stroke="black" points="634.338,-1269.64 635.516,-1259.11 628.029,-1266.61 634.338,-1269.64"/>
</g>
<!-- 4&#45;&gt;0 -->
<g id="edge116" class="edge"><title>4&#45;&gt;0</title>
<path fill="none" stroke="black" d="M1794.21,-1748.46C1621.85,-1757.47 671.118,-1805.45 470.952,-1815.25"/>
<polygon fill="black" stroke="black" points="470.755,-1811.76 460.937,-1815.74 471.096,-1818.75 470.755,-1811.76"/>
</g>
<!-- 1 -->
<g id="node5" class="node"><title>1</title>
<ellipse fill="red" stroke="red" cx="842" cy="-90" rx="27" ry="18"/>
<text text-anchor="middle" x="842" y="-86.3" font-family="Times,serif" font-size="14.00">1</text>
</g>
<!-- 4&#45;&gt;1 -->
<g id="edge42" class="edge"><title>4&#45;&gt;1</title>
<path fill="none" stroke="black" d="M1840.5,-1733.29C1844.53,-1731.26 1848.81,-1729.37 1853,-1728 1958.85,-1693.36 2003.37,-1745.59 2101,-1692 2138.02,-1671.68 2143.7,-1657.56 2163,-1620 2285.19,-1382.21 2264,-1294.35 2264,-1027 2264,-1027 2264,-1027 2264,-953 2264,-771.501 2061.47,-318.959 1912,-216 1837.63,-164.773 1810.43,-162.318 1722,-144 1383.48,-73.8756 1288.8,-144.21 945,-108 922.541,-105.635 897.543,-101.544 877.799,-97.9686"/>
<polygon fill="black" stroke="black" points="878.177,-94.4793 867.707,-96.1036 876.905,-101.363 878.177,-94.4793"/>
</g>
<!-- 7 -->
<g id="node6" class="node"><title>7</title>
<ellipse fill="red" stroke="red" cx="1279" cy="-594" rx="27" ry="18"/>
<text text-anchor="middle" x="1279" y="-590.3" font-family="Times,serif" font-size="14.00">7</text>
</g>
<!-- 4&#45;&gt;7 -->
<g id="edge18" class="edge"><title>4&#45;&gt;7</title>
<path fill="none" stroke="black" d="M1847.6,-1742.58C1912.55,-1735.06 2074,-1706 2074,-1603 2074,-1603 2074,-1603 2074,-1025 2074,-849.174 1464.78,-651.667 1312.95,-605.176"/>
<polygon fill="black" stroke="black" points="1313.81,-601.778 1303.23,-602.212 1311.77,-608.474 1313.81,-601.778"/>
</g>
<!-- 3 -->
<g id="node12" class="node"><title>3</title>
<ellipse fill="red" stroke="red" cx="434" cy="-810" rx="27" ry="18"/>
<text text-anchor="middle" x="434" y="-806.3" font-family="Times,serif" font-size="14.00">3</text>
</g>
<!-- 4&#45;&gt;3 -->
<g id="edge66" class="edge"><title>4&#45;&gt;3</title>
<path fill="none" stroke="black" d="M1794.08,-1743.33C1612.72,-1730.97 573.215,-1647.56 409,-1404 284.544,-1219.41 381.68,-923.732 420.339,-836.193"/>
<polygon fill="black" stroke="black" points="423.559,-837.568 424.532,-827.018 417.192,-834.658 423.559,-837.568"/>
</g>
<!-- 4&#45;&gt;3 -->
<g id="edge130" class="edge"><title>4&#45;&gt;3</title>
<path fill="none" stroke="black" d="M1794.37,-1743.04C1615.25,-1729.72 589.988,-1645.75 427,-1404 303.224,-1220.42 398.625,-926.96 427.039,-837.647"/>
<polygon fill="black" stroke="black" points="430.406,-838.607 430.081,-828.018 423.731,-836.499 430.406,-838.607"/>
</g>
<!-- 12 -->
<g id="node16" class="node"><title>12</title>
<ellipse fill="red" stroke="red" cx="2033" cy="-90" rx="27" ry="18"/>
<text text-anchor="middle" x="2033" y="-86.3" font-family="Times,serif" font-size="14.00">12</text>
</g>
<!-- 4&#45;&gt;12 -->
<g id="edge53" class="edge"><title>4&#45;&gt;12</title>
<path fill="none" stroke="black" d="M1840.45,-1733.12C1844.48,-1731.1 1848.78,-1729.26 1853,-1728 1935.75,-1703.26 2178.92,-1753.07 2240,-1692 2292.48,-1639.53 2302,-1101.21 2302,-1027 2302,-1027 2302,-1027 2302,-521 2302,-424.401 2264,-403.599 2264,-307 2264,-307 2264,-307 2264,-233 2264,-128.555 2161.16,-148.767 2065,-108 2064.14,-107.635 2063.27,-107.255 2062.4,-106.862"/>
<polygon fill="black" stroke="black" points="2063.58,-103.547 2053.05,-102.337 2060.53,-109.847 2063.58,-103.547"/>
</g>
<!-- 19 -->
<g id="node18" class="node"><title>19</title>
<ellipse fill="red" stroke="red" cx="1566" cy="-162" rx="27" ry="18"/>
<text text-anchor="middle" x="1566" y="-158.3" font-family="Times,serif" font-size="14.00">19</text>
</g>
<!-- 4&#45;&gt;19 -->
<g id="edge83" class="edge"><title>4&#45;&gt;19</title>
<path fill="none" stroke="black" d="M1840.54,-1733.4C1844.56,-1731.37 1848.84,-1729.44 1853,-1728 1937.5,-1698.67 1970.7,-1731.39 2051,-1692 2104.12,-1665.94 2150,-1662.17 2150,-1603 2150,-1603 2150,-1603 2150,-1097 2150,-969.889 2150,-938.111 2150,-811 2150,-811 2150,-811 2150,-737 2150,-604.278 1975.53,-277.667 1858,-216 1754.7,-161.797 1708.99,-215.916 1598,-180 1596.95,-179.661 1595.9,-179.289 1594.84,-178.89"/>
<polygon fill="black" stroke="black" points="1596.06,-175.598 1585.5,-174.735 1593.21,-181.995 1596.06,-175.598"/>
</g>
<!-- 18 -->
<g id="node21" class="node"><title>18</title>
<ellipse fill="red" stroke="red" cx="1150" cy="-18" rx="27" ry="18"/>
<text text-anchor="middle" x="1150" y="-14.3" font-family="Times,serif" font-size="14.00">18</text>
</g>
<!-- 4&#45;&gt;18 -->
<g id="edge21" class="edge"><title>4&#45;&gt;18</title>
<path fill="none" stroke="black" d="M1840.1,-1733.27C1844.23,-1731.19 1848.66,-1729.29 1853,-1728 1940.48,-1702.08 2190.36,-1748.5 2262,-1692 2347.75,-1624.38 2340,-1568.2 2340,-1459 2340,-1459 2340,-1459 2340,-161 2340,-130.282 2458.81,-147.915 2174,-72 1982.31,-20.9068 1348.23,-18.6062 1187.36,-18.8662"/>
<polygon fill="black" stroke="black" points="1187.03,-15.3668 1177.03,-18.8876 1187.04,-22.3668 1187.03,-15.3668"/>
</g>
<!-- 25 -->
<g id="node25" class="node"><title>25</title>
<ellipse fill="red" stroke="red" cx="660" cy="-666" rx="27" ry="18"/>
<text text-anchor="middle" x="660" y="-662.3" font-family="Times,serif" font-size="14.00">25</text>
</g>
<!-- 4&#45;&gt;25 -->
<g id="edge61" class="edge"><title>4&#45;&gt;25</title>
<path fill="none" stroke="black" d="M1793.96,-1744.54C1696.94,-1742.59 1357.47,-1733.05 1081,-1692 938.09,-1670.78 902.767,-1660.22 764,-1620 601.256,-1572.83 524.966,-1601.39 411,-1476 268.002,-1318.67 246,-1239.6 246,-1027 246,-1027 246,-1027 246,-953 246,-769.913 523.481,-694.917 624.104,-673.74"/>
<polygon fill="black" stroke="black" points="625.008,-677.128 634.102,-671.692 623.603,-670.27 625.008,-677.128"/>
</g>
<!-- 31 -->
<g id="node28" class="node"><title>31</title>
<ellipse fill="red" stroke="red" cx="1414" cy="-810" rx="27" ry="18"/>
<text text-anchor="middle" x="1414" y="-806.3" font-family="Times,serif" font-size="14.00">31</text>
</g>
<!-- 4&#45;&gt;31 -->
<g id="edge27" class="edge"><title>4&#45;&gt;31</title>
<path fill="none" stroke="black" d="M1839.57,-1732.73C1873.74,-1711.71 1942,-1665 1942,-1603 1942,-1603 1942,-1603 1942,-1241 1942,-1088.11 1784.49,-1132.74 1660,-1044 1615.7,-1012.42 1602.08,-1007.67 1561,-972 1509.47,-927.262 1455.35,-868.284 1429.25,-835.557"/>
<polygon fill="black" stroke="black" points="1431.84,-833.192 1422.95,-827.442 1426.32,-837.486 1431.84,-833.192"/>
</g>
<!-- 4&#45;&gt;31 -->
<g id="edge120" class="edge"><title>4&#45;&gt;31</title>
<path fill="none" stroke="black" d="M1843.73,-1736.2C1883.41,-1717.19 1960,-1668.68 1960,-1603 1960,-1603 1960,-1603 1960,-1241 1960,-1088.11 1802.49,-1132.74 1678,-1044 1633.7,-1012.42 1620.08,-1007.67 1579,-972 1525.63,-925.66 1469.47,-864.043 1438.13,-832.145"/>
<polygon fill="black" stroke="black" points="1440.25,-829.315 1430.71,-824.703 1435.29,-834.257 1440.25,-829.315"/>
</g>
<!-- 29 -->
<g id="node29" class="node"><title>29</title>
<ellipse fill="red" stroke="red" cx="1743" cy="-1386" rx="27" ry="18"/>
<text text-anchor="middle" x="1743" y="-1382.3" font-family="Times,serif" font-size="14.00">29</text>
</g>
<!-- 4&#45;&gt;29 -->
<g id="edge37" class="edge"><title>4&#45;&gt;29</title>
<path fill="none" stroke="black" d="M1812.37,-1728.52C1802.96,-1699.34 1790.42,-1636.7 1779,-1584 1765.85,-1523.3 1749.37,-1452.35 1743.43,-1414.35"/>
<polygon fill="black" stroke="black" points="1746.84,-1413.52 1741.99,-1404.1 1739.91,-1414.49 1746.84,-1413.52"/>
</g>
<!-- 4&#45;&gt;29 -->
<g id="edge155" class="edge"><title>4&#45;&gt;29</title>
<path fill="none" stroke="black" d="M1823.09,-1728.05C1820.83,-1698.68 1808.36,-1636.42 1797,-1584 1783.66,-1522.42 1766.89,-1450.27 1754.96,-1412.7"/>
<polygon fill="black" stroke="black" points="1758.22,-1411.43 1751.73,-1403.06 1751.58,-1413.65 1758.22,-1411.43"/>
</g>
<!-- 30 -->
<g id="node30" class="node"><title>30</title>
<ellipse fill="red" stroke="red" cx="1542" cy="-1674" rx="27" ry="18"/>
<text text-anchor="middle" x="1542" y="-1670.3" font-family="Times,serif" font-size="14.00">30</text>
</g>
<!-- 4&#45;&gt;30 -->
<g id="edge48" class="edge"><title>4&#45;&gt;30</title>
<path fill="none" stroke="black" d="M1796.24,-1738.79C1746.52,-1726.31 1634.42,-1698.19 1577.14,-1683.82"/>
<polygon fill="black" stroke="black" points="1577.66,-1680.34 1567.1,-1681.3 1575.95,-1687.13 1577.66,-1680.34"/>
</g>
<!-- 15 -->
<g id="node3" class="node"><title>15</title>
<ellipse fill="red" stroke="red" cx="980" cy="-954" rx="27" ry="18"/>
<text text-anchor="middle" x="980" y="-950.3" font-family="Times,serif" font-size="14.00">15</text>
</g>
<!-- 15&#45;&gt;4 -->
<g id="edge70" class="edge"><title>15&#45;&gt;4</title>
<path fill="none" stroke="black" d="M1004.81,-961.286C1120.18,-990.922 1603.33,-1119.61 1715,-1224 1860.06,-1359.6 1811.95,-1458.16 1829,-1656 1830.37,-1671.94 1830.2,-1676.04 1829,-1692 1828.36,-1700.48 1827.16,-1709.66 1825.88,-1717.96"/>
<polygon fill="black" stroke="black" points="1822.42,-1717.45 1824.25,-1727.89 1829.32,-1718.59 1822.42,-1717.45"/>
</g>
<!-- 15&#45;&gt;1 -->
<g id="edge94" class="edge"><title>15&#45;&gt;1</title>
<path fill="none" stroke="black" d="M972.466,-936.628C950.161,-886.606 886,-730.909 886,-595 886,-595 886,-595 886,-521 886,-367.625 844.813,-332.92 833,-180 831.768,-164.048 831.656,-159.943 833,-144 833.717,-135.499 835.069,-126.312 836.512,-118.012"/>
<polygon fill="black" stroke="black" points="839.969,-118.562 838.346,-108.092 833.086,-117.289 839.969,-118.562"/>
</g>
<!-- 15&#45;&gt;8 -->
<g id="edge39" class="edge"><title>15&#45;&gt;8</title>
<path fill="none" stroke="black" d="M961.181,-966.986C904.971,-1002.79 738.109,-1109.06 671.708,-1151.35"/>
<polygon fill="black" stroke="black" points="669.582,-1148.56 663.028,-1156.88 673.342,-1154.46 669.582,-1148.56"/>
</g>
<!-- 20 -->
<g id="node14" class="node"><title>20</title>
<ellipse fill="red" stroke="red" cx="248" cy="-1530" rx="27" ry="18"/>
<text text-anchor="middle" x="248" y="-1526.3" font-family="Times,serif" font-size="14.00">20</text>
</g>
<!-- 15&#45;&gt;20 -->
<g id="edge157" class="edge"><title>15&#45;&gt;20</title>
<path fill="none" stroke="black" d="M955.84,-962.266C926.89,-971.352 877.25,-988.151 837,-1008 551.909,-1148.59 422.86,-1162.96 267,-1440 256.315,-1458.99 251.628,-1483.36 249.578,-1501.79"/>
<polygon fill="black" stroke="black" points="246.081,-1501.59 248.65,-1511.87 253.052,-1502.23 246.081,-1501.59"/>
</g>
<!-- 15&#45;&gt;19 -->
<g id="edge143" class="edge"><title>15&#45;&gt;19</title>
<path fill="none" stroke="black" d="M1003.5,-944.839C1050.36,-928.519 1150,-886.765 1150,-811 1150,-811 1150,-811 1150,-521 1150,-371.285 1175.21,-308.413 1293,-216 1328.87,-187.857 1463.36,-171.83 1529.33,-165.795"/>
<polygon fill="black" stroke="black" points="1529.65,-169.281 1539.3,-164.912 1529.03,-162.308 1529.65,-169.281"/>
</g>
<!-- 14 -->
<g id="node20" class="node"><title>14</title>
<ellipse fill="red" stroke="red" cx="1338" cy="-306" rx="27" ry="18"/>
<text text-anchor="middle" x="1338" y="-302.3" font-family="Times,serif" font-size="14.00">14</text>
</g>
<!-- 15&#45;&gt;14 -->
<g id="edge90" class="edge"><title>15&#45;&gt;14</title>
<path fill="none" stroke="black" d="M1005.9,-948.357C1052.7,-940.36 1148.01,-922.64 1173,-900 1204.26,-871.674 1206,-853.187 1206,-811 1206,-811 1206,-811 1206,-593 1206,-486.909 1278.31,-375.372 1316.1,-329.108"/>
<polygon fill="black" stroke="black" points="1318.96,-331.147 1322.73,-321.246 1313.61,-326.635 1318.96,-331.147"/>
</g>
<!-- 15&#45;&gt;18 -->
<g id="edge24" class="edge"><title>15&#45;&gt;18</title>
<path fill="none" stroke="black" d="M983.142,-936.076C987.493,-912.102 995.343,-866.842 1000,-828 1023.83,-629.228 1036,-579.196 1036,-379 1036,-379 1036,-379 1036,-161 1036,-106.15 1088.36,-60.4249 1122.11,-36.6491"/>
<polygon fill="black" stroke="black" points="1124.38,-39.3396 1130.66,-30.8101 1120.43,-33.5587 1124.38,-39.3396"/>
</g>
<!-- 17 -->
<g id="node22" class="node"><title>17</title>
<ellipse fill="red" stroke="red" cx="981" cy="-90" rx="27" ry="18"/>
<text text-anchor="middle" x="981" y="-86.3" font-family="Times,serif" font-size="14.00">17</text>
</g>
<!-- 15&#45;&gt;17 -->
<g id="edge133" class="edge"><title>15&#45;&gt;17</title>
<path fill="none" stroke="black" d="M961.353,-940.546C954.329,-929.92 949.838,-914.157 948,-900 945.94,-884.133 947.769,-879.998 948,-864 951.111,-648.377 962,-594.645 962,-379 962,-379 962,-379 962,-233 962,-192.339 962.415,-145.131 967.524,-116.689"/>
<polygon fill="black" stroke="black" points="970.978,-117.279 969.72,-106.759 964.143,-115.767 970.978,-117.279"/>
</g>
<!-- 15&#45;&gt;25 -->
<g id="edge146" class="edge"><title>15&#45;&gt;25</title>
<path fill="none" stroke="black" d="M954.901,-947.04C914.72,-937.148 838.209,-916.768 816,-900 741.463,-843.724 691.03,-740.935 670.436,-692.956"/>
<polygon fill="black" stroke="black" points="673.599,-691.448 666.496,-683.586 667.146,-694.161 673.599,-691.448"/>
</g>
<!-- 15&#45;&gt;31 -->
<g id="edge100" class="edge"><title>15&#45;&gt;31</title>
<path fill="none" stroke="black" d="M1006.62,-949.903C1054.12,-943.859 1156.18,-928.521 1238,-900 1292.82,-880.891 1352.23,-848.052 1386.1,-828.053"/>
<polygon fill="black" stroke="black" points="1388.16,-830.903 1394.95,-822.775 1384.57,-824.891 1388.16,-830.903"/>
</g>
<!-- 26 -->
<g id="node31" class="node"><title>26</title>
<ellipse fill="red" stroke="red" cx="661" cy="-882" rx="27" ry="18"/>
<text text-anchor="middle" x="661" y="-878.3" font-family="Times,serif" font-size="14.00">26</text>
</g>
<!-- 15&#45;&gt;26 -->
<g id="edge135" class="edge"><title>15&#45;&gt;26</title>
<path fill="none" stroke="black" d="M954.702,-947.449C898.167,-935.043 761.456,-905.044 696.462,-890.782"/>
<polygon fill="black" stroke="black" points="696.818,-887.277 686.301,-888.552 695.318,-894.114 696.818,-887.277"/>
</g>
<!-- 2 -->
<g id="node4" class="node"><title>2</title>
<ellipse fill="red" stroke="red" cx="1705" cy="-1026" rx="27" ry="18"/>
<text text-anchor="middle" x="1705" y="-1022.3" font-family="Times,serif" font-size="14.00">2</text>
</g>
<!-- 2&#45;&gt;15 -->
<g id="edge1" class="edge"><title>2&#45;&gt;15</title>
<path fill="none" stroke="black" d="M1678.25,-1022.67C1567.36,-1012.47 1144.74,-971.689 1016.82,-958.874"/>
<polygon fill="black" stroke="black" points="1017.04,-955.379 1006.74,-957.861 1016.34,-962.344 1017.04,-955.379"/>
</g>
<!-- 2&#45;&gt;15 -->
<g id="edge86" class="edge"><title>2&#45;&gt;15</title>
<path fill="none" stroke="black" d="M1678.55,-1022.17C1568.1,-1011.01 1144.49,-970.106 1016.65,-958.244"/>
<polygon fill="black" stroke="black" points="1016.87,-954.749 1006.59,-957.314 1016.22,-961.719 1016.87,-954.749"/>
</g>
<!-- 2&#45;&gt;2 -->
<g id="edge84" class="edge"><title>2&#45;&gt;2</title>
<path fill="none" stroke="black" d="M1724.9,-1038.43C1737.69,-1041.68 1750,-1037.53 1750,-1026 1750,-1017.62 1743.5,-1013.14 1735.04,-1012.56"/>
<polygon fill="black" stroke="black" points="1734.5,-1009.1 1724.9,-1013.57 1735.19,-1016.07 1734.5,-1009.1"/>
</g>
<!-- 2&#45;&gt;19 -->
<g id="edge36" class="edge"><title>2&#45;&gt;19</title>
<path fill="none" stroke="black" d="M1722.01,-1011.77C1759.51,-980.949 1846,-900.207 1846,-811 1846,-811 1846,-811 1846,-737 1846,-641.623 1862,-618.377 1862,-523 1862,-523 1862,-523 1862,-449 1862,-395.42 1838.59,-253.173 1800,-216 1772.13,-189.147 1661.4,-173.351 1602.81,-166.71"/>
<polygon fill="black" stroke="black" points="1603.17,-163.228 1592.85,-165.612 1602.41,-170.186 1603.17,-163.228"/>
</g>
<!-- 2&#45;&gt;14 -->
<g id="edge107" class="edge"><title>2&#45;&gt;14</title>
<path fill="none" stroke="black" d="M1709.17,-1007.73C1714.38,-997.771 1721.46,-984.733 1725,-972 1733.58,-941.142 1727.11,-932.015 1728,-900 1733.79,-691.466 1827.81,-590.355 1692,-432 1609.29,-335.554 1448.48,-313.432 1375.46,-308.423"/>
<polygon fill="black" stroke="black" points="1375.54,-304.921 1365.34,-307.801 1375.11,-311.908 1375.54,-304.921"/>
</g>
<!-- 1&#45;&gt;2 -->
<g id="edge156" class="edge"><title>1&#45;&gt;2</title>
<path fill="none" stroke="black" d="M867.714,-96.0428C888.486,-99.9231 918.516,-105.098 945,-108 1235.7,-139.858 1313.11,-98.6072 1602,-144 1726.39,-163.544 1774.7,-141.213 1876,-216 1943.77,-266.033 1976,-292.765 1976,-377 1976,-451 1976,-451 1976,-451 1976,-584.526 1884,-603.474 1884,-737 1884,-811 1884,-811 1884,-811 1884,-893.195 1852.44,-915.229 1793,-972 1776.31,-987.944 1754,-1001.31 1736.02,-1010.64"/>
<polygon fill="black" stroke="black" points="1734.43,-1007.52 1727.06,-1015.14 1737.57,-1013.77 1734.43,-1007.52"/>
</g>
<!-- 1&#45;&gt;1 -->
<g id="edge104" class="edge"><title>1&#45;&gt;1</title>
<path fill="none" stroke="black" d="M861.895,-102.432C874.688,-105.675 887,-101.531 887,-90 887,-81.6218 880.501,-77.1433 872.039,-76.5644"/>
<polygon fill="black" stroke="black" points="871.502,-73.1004 861.895,-77.5679 872.191,-80.0665 871.502,-73.1004"/>
</g>
<!-- 1&#45;&gt;8 -->
<g id="edge64" class="edge"><title>1&#45;&gt;8</title>
<path fill="none" stroke="black" d="M814.697,-90.6163C722.128,-89.8097 421.643,-91.3812 344,-144 225.533,-224.285 232.362,-292.599 200,-432 124.955,-755.266 357.77,-825.706 571,-1080 589.538,-1102.11 610.385,-1127.59 625.04,-1145.6"/>
<polygon fill="black" stroke="black" points="622.677,-1148.25 631.699,-1153.8 628.11,-1143.83 622.677,-1148.25"/>
</g>
<!-- 1&#45;&gt;16 -->
<g id="edge69" class="edge"><title>1&#45;&gt;16</title>
<path fill="none" stroke="black" d="M823.717,-103.405C809.143,-113.626 788.513,-128.854 772,-144 676.688,-231.423 641.462,-247.876 577,-360 491.391,-508.906 492,-565.238 492,-737 492,-883 492,-883 492,-883 492,-1025.94 520.572,-1065.37 594,-1188 601.006,-1199.7 610.979,-1210.95 620.177,-1220.04"/>
<polygon fill="black" stroke="black" points="617.983,-1222.79 627.64,-1227.15 622.808,-1217.72 617.983,-1222.79"/>
</g>
<!-- 7&#45;&gt;1 -->
<g id="edge148" class="edge"><title>7&#45;&gt;1</title>
<path fill="none" stroke="black" d="M1267.64,-577.443C1224.01,-518.114 1061.72,-301.487 905,-144 893.204,-132.146 879.031,-120.057 867.118,-110.424"/>
<polygon fill="black" stroke="black" points="869.288,-107.678 859.288,-104.18 864.924,-113.151 869.288,-107.678"/>
</g>
<!-- 7&#45;&gt;20 -->
<g id="edge103" class="edge"><title>7&#45;&gt;20</title>
<path fill="none" stroke="black" d="M1251.75,-594.926C1110.41,-595.058 461.542,-602.159 308,-720 158.513,-834.729 114,-908.561 114,-1097 114,-1387 114,-1387 114,-1387 114,-1447.09 178.266,-1492.06 217.786,-1514.03"/>
<polygon fill="black" stroke="black" points="216.303,-1517.2 226.767,-1518.86 219.622,-1511.04 216.303,-1517.2"/>
</g>
<!-- 23 -->
<g id="node23" class="node"><title>23</title>
<ellipse fill="red" stroke="red" cx="1507" cy="-522" rx="27" ry="18"/>
<text text-anchor="middle" x="1507" y="-518.3" font-family="Times,serif" font-size="14.00">23</text>
</g>
<!-- 7&#45;&gt;23 -->
<g id="edge55" class="edge"><title>7&#45;&gt;23</title>
<path fill="none" stroke="black" d="M1297.74,-581.034C1302.06,-579.259 1306.63,-577.518 1311,-576 1365.98,-556.885 1431.76,-539.468 1471.59,-530.139"/>
<polygon fill="black" stroke="black" points="1472.41,-533.541 1481.37,-527.89 1470.84,-526.718 1472.41,-533.541"/>
</g>
<!-- 7&#45;&gt;23 -->
<g id="edge60" class="edge"><title>7&#45;&gt;23</title>
<path fill="none" stroke="black" d="M1303.4,-585.774C1311.66,-582.572 1320.7,-578.885 1329,-576 1378.46,-558.803 1436.67,-542.98 1472.84,-533.184"/>
<polygon fill="black" stroke="black" points="1474.15,-536.458 1482.88,-530.464 1472.31,-529.701 1474.15,-536.458"/>
</g>
<!-- 13 -->
<g id="node7" class="node"><title>13</title>
<ellipse fill="red" stroke="red" cx="834" cy="-1098" rx="27" ry="18"/>
<text text-anchor="middle" x="834" y="-1094.3" font-family="Times,serif" font-size="14.00">13</text>
</g>
<!-- 13&#45;&gt;2 -->
<g id="edge121" class="edge"><title>13&#45;&gt;2</title>
<path fill="none" stroke="black" d="M861.022,-1094.83C987.641,-1084.65 1522.19,-1041.69 1668.08,-1029.97"/>
<polygon fill="black" stroke="black" points="1668.61,-1033.44 1678.29,-1029.15 1668.04,-1026.46 1668.61,-1033.44"/>
</g>
<!-- 13&#45;&gt;7 -->
<g id="edge13" class="edge"><title>13&#45;&gt;7</title>
<path fill="none" stroke="black" d="M855.995,-1087.55C936.368,-1052.87 1210.89,-932.831 1238,-900 1264.09,-868.41 1262,-851.969 1262,-811 1262,-811 1262,-811 1262,-737 1262,-696.71 1268.83,-650.444 1273.83,-621.965"/>
<polygon fill="black" stroke="black" points="1277.3,-622.434 1275.64,-611.971 1270.42,-621.187 1277.3,-622.434"/>
</g>
<!-- 21 -->
<g id="node26" class="node"><title>21</title>
<ellipse fill="red" stroke="red" cx="660" cy="-378" rx="27" ry="18"/>
<text text-anchor="middle" x="660" y="-374.3" font-family="Times,serif" font-size="14.00">21</text>
</g>
<!-- 13&#45;&gt;21 -->
<g id="edge89" class="edge"><title>13&#45;&gt;21</title>
<path fill="none" stroke="black" d="M832.086,-1079.79C829.896,-1061.75 825.841,-1032.66 820,-1008 812.256,-975.312 808.508,-967.56 797,-936 764.57,-847.06 716,-833.668 716,-739 716,-739 716,-739 716,-521 716,-480.031 708.078,-469.682 692,-432 687.805,-422.168 682.04,-411.976 676.557,-403.188"/>
<polygon fill="black" stroke="black" points="679.387,-401.118 671.025,-394.612 673.505,-404.913 679.387,-401.118"/>
</g>
<!-- 13&#45;&gt;30 -->
<g id="edge25" class="edge"><title>13&#45;&gt;30</title>
<path fill="none" stroke="black" d="M860.158,-1103.14C944.833,-1117.27 1206,-1166.86 1206,-1241 1206,-1531 1206,-1531 1206,-1531 1206,-1659.56 1417.27,-1673.52 1504.76,-1673.79"/>
<polygon fill="black" stroke="black" points="1504.8,-1677.29 1514.79,-1673.76 1504.78,-1670.29 1504.8,-1677.29"/>
</g>
<!-- 13&#45;&gt;26 -->
<g id="edge117" class="edge"><title>13&#45;&gt;26</title>
<path fill="none" stroke="black" d="M829.238,-1080.14C818.608,-1043.46 792.288,-957.933 772,-936 766.128,-929.652 723.252,-910.121 692.548,-896.629"/>
<polygon fill="black" stroke="black" points="693.634,-893.284 683.069,-892.485 690.83,-899.698 693.634,-893.284"/>
</g>
<!-- 8&#45;&gt;13 -->
<g id="edge129" class="edge"><title>8&#45;&gt;13</title>
<path fill="none" stroke="black" d="M667.298,-1160.42C700.863,-1148.05 762.98,-1125.17 801.179,-1111.09"/>
<polygon fill="black" stroke="black" points="802.636,-1114.29 810.809,-1107.54 800.216,-1107.72 802.636,-1114.29"/>
</g>
<!-- 6 -->
<g id="node9" class="node"><title>6</title>
<ellipse fill="red" stroke="red" cx="1679" cy="-1242" rx="27" ry="18"/>
<text text-anchor="middle" x="1679" y="-1238.3" font-family="Times,serif" font-size="14.00">6</text>
</g>
<!-- 6&#45;&gt;8 -->
<g id="edge82" class="edge"><title>6&#45;&gt;8</title>
<path fill="none" stroke="black" d="M1652.11,-1239.18C1509.9,-1229.56 845.673,-1184.64 681.008,-1173.5"/>
<polygon fill="black" stroke="black" points="681.109,-1170 670.896,-1172.82 680.637,-1176.99 681.109,-1170"/>
</g>
<!-- 24 -->
<g id="node15" class="node"><title>24</title>
<ellipse fill="red" stroke="red" cx="1481" cy="-1602" rx="27" ry="18"/>
<text text-anchor="middle" x="1481" y="-1598.3" font-family="Times,serif" font-size="14.00">24</text>
</g>
<!-- 6&#45;&gt;24 -->
<g id="edge115" class="edge"><title>6&#45;&gt;24</title>
<path fill="none" stroke="black" d="M1667.42,-1258.73C1660.14,-1269.01 1650.88,-1282.92 1644,-1296 1587.76,-1402.94 1612.21,-1449.66 1542,-1548 1532.62,-1561.14 1519.35,-1573.17 1507.58,-1582.44"/>
<polygon fill="black" stroke="black" points="1505.2,-1579.85 1499.35,-1588.68 1509.43,-1585.43 1505.2,-1579.85"/>
</g>
<!-- 27 -->
<g id="node19" class="node"><title>27</title>
<ellipse fill="red" stroke="red" cx="1338" cy="-234" rx="27" ry="18"/>
<text text-anchor="middle" x="1338" y="-230.3" font-family="Times,serif" font-size="14.00">27</text>
</g>
<!-- 6&#45;&gt;27 -->
<g id="edge8" class="edge"><title>6&#45;&gt;27</title>
<path fill="none" stroke="black" d="M1694.63,-1227.2C1734.99,-1190.46 1842.55,-1085.35 1886,-972 1926.13,-867.302 1923.15,-829.27 1898,-720 1839.78,-467.052 1740.78,-396.535 1505,-288 1461.18,-267.828 1407.56,-252.309 1373.1,-243.419"/>
<polygon fill="black" stroke="black" points="1373.61,-239.937 1363.05,-240.875 1371.89,-246.723 1373.61,-239.937"/>
</g>
<!-- 6&#45;&gt;30 -->
<g id="edge67" class="edge"><title>6&#45;&gt;30</title>
<path fill="none" stroke="black" d="M1673.67,-1259.74C1652.76,-1325.37 1576.27,-1565.45 1550.52,-1646.25"/>
<polygon fill="black" stroke="black" points="1547.07,-1645.55 1547.37,-1656.14 1553.74,-1647.68 1547.07,-1645.55"/>
</g>
<!-- 22 -->
<g id="node10" class="node"><title>22</title>
<ellipse fill="red" stroke="red" cx="1565" cy="-1314" rx="27" ry="18"/>
<text text-anchor="middle" x="1565" y="-1310.3" font-family="Times,serif" font-size="14.00">22</text>
</g>
<!-- 22&#45;&gt;4 -->
<g id="edge51" class="edge"><title>22&#45;&gt;4</title>
<path fill="none" stroke="black" d="M1572.01,-1331.49C1606.23,-1397.51 1752.22,-1643.01 1803.42,-1721.03"/>
<polygon fill="black" stroke="black" points="1800.73,-1723.31 1809.18,-1729.7 1806.55,-1719.43 1800.73,-1723.31"/>
</g>
<!-- 22&#45;&gt;4 -->
<g id="edge85" class="edge"><title>22&#45;&gt;4</title>
<path fill="none" stroke="black" d="M1576.89,-1330.41C1620.1,-1394.36 1766.19,-1639.35 1809.21,-1719.48"/>
<polygon fill="black" stroke="black" points="1806.17,-1721.2 1813.93,-1728.41 1812.35,-1717.93 1806.17,-1721.2"/>
</g>
<!-- 22&#45;&gt;6 -->
<g id="edge125" class="edge"><title>22&#45;&gt;6</title>
<path fill="none" stroke="black" d="M1584.34,-1301.13C1602.6,-1289.91 1630.19,-1272.97 1650.89,-1260.26"/>
<polygon fill="black" stroke="black" points="1652.88,-1263.15 1659.57,-1254.93 1649.21,-1257.18 1652.88,-1263.15"/>
</g>
<!-- 9 -->
<g id="node11" class="node"><title>9</title>
<ellipse fill="red" stroke="red" cx="454" cy="-1386" rx="27" ry="18"/>
<text text-anchor="middle" x="454" y="-1382.3" font-family="Times,serif" font-size="14.00">9</text>
</g>
<!-- 22&#45;&gt;9 -->
<g id="edge75" class="edge"><title>22&#45;&gt;9</title>
<path fill="none" stroke="black" d="M1538.03,-1317.07C1490.65,-1320.27 1390.23,-1326.62 1305,-1332 990.344,-1351.85 609.54,-1375.79 490.938,-1382.91"/>
<polygon fill="black" stroke="black" points="490.699,-1379.42 480.925,-1383.51 491.116,-1386.4 490.699,-1379.42"/>
</g>
<!-- 10 -->
<g id="node13" class="node"><title>10</title>
<ellipse fill="red" stroke="red" cx="869" cy="-162" rx="27" ry="18"/>
<text text-anchor="middle" x="869" y="-158.3" font-family="Times,serif" font-size="14.00">10</text>
</g>
<!-- 22&#45;&gt;10 -->
<g id="edge41" class="edge"><title>22&#45;&gt;10</title>
<path fill="none" stroke="black" d="M1577.76,-1298.01C1593.03,-1280.16 1619.5,-1249.56 1643,-1224 1772.4,-1083.25 1875.47,-1084.4 1926,-900 1973.67,-726.022 1933.83,-656.197 1837,-504 1706.91,-299.536 1609.36,-273.755 1374,-216 1202.61,-173.942 990.461,-165.252 906.104,-163.462"/>
<polygon fill="black" stroke="black" points="906.06,-159.96 895.995,-163.268 905.926,-166.959 906.06,-159.96"/>
</g>
<!-- 22&#45;&gt;16 -->
<g id="edge105" class="edge"><title>22&#45;&gt;16</title>
<path fill="none" stroke="black" d="M1537.99,-1311.13C1406.23,-1301.54 832.39,-1257.94 680.781,-1246.02"/>
<polygon fill="black" stroke="black" points="680.852,-1242.52 670.607,-1245.22 680.301,-1249.49 680.852,-1242.52"/>
</g>
<!-- 9&#45;&gt;22 -->
<g id="edge10" class="edge"><title>9&#45;&gt;22</title>
<path fill="none" stroke="black" d="M480.707,-1383.1C584.47,-1376.23 969.425,-1352.03 1287,-1332 1373.03,-1326.57 1474.54,-1320.15 1528.06,-1316.98"/>
<polygon fill="black" stroke="black" points="1528.33,-1320.47 1538.1,-1316.39 1527.91,-1313.48 1528.33,-1320.47"/>
</g>
<!-- 9&#45;&gt;3 -->
<g id="edge3" class="edge"><title>9&#45;&gt;3</title>
<path fill="none" stroke="black" d="M442.867,-1369.44C431.676,-1336.17 424.94,-1255.65 422,-1188 416.289,-1056.59 415.847,-899.209 424.625,-837.584"/>
<polygon fill="black" stroke="black" points="428.106,-837.987 426.307,-827.546 421.202,-836.83 428.106,-837.987"/>
</g>
<!-- 9&#45;&gt;3 -->
<g id="edge56" class="edge"><title>9&#45;&gt;3</title>
<path fill="none" stroke="black" d="M452.466,-1367.89C449.473,-1333.73 442.895,-1254.63 440,-1188 434.316,-1057.21 433.851,-900.686 433.92,-838.459"/>
<polygon fill="black" stroke="black" points="437.42,-838.301 433.937,-828.296 430.42,-838.29 437.42,-838.301"/>
</g>
<!-- 3&#45;&gt;2 -->
<g id="edge34" class="edge"><title>3&#45;&gt;2</title>
<path fill="none" stroke="black" d="M460.238,-814.342C508.104,-820.863 612.46,-837.055 697,-864 734.535,-875.963 741.929,-884.162 778,-900 851.633,-932.331 865.875,-952.932 944,-972 1083.83,-1006.13 1534.84,-1020.51 1667.79,-1024.07"/>
<polygon fill="black" stroke="black" points="1667.79,-1027.58 1677.87,-1024.34 1667.97,-1020.58 1667.79,-1027.58"/>
</g>
<!-- 3&#45;&gt;9 -->
<g id="edge132" class="edge"><title>3&#45;&gt;9</title>
<path fill="none" stroke="black" d="M441.571,-827.546C451.813,-880.217 451.946,-1048.7 458,-1188 460.656,-1249.11 466.408,-1320.71 463.562,-1358.51"/>
<polygon fill="black" stroke="black" points="460.058,-1358.35 462.456,-1368.67 467.017,-1359.11 460.058,-1358.35"/>
</g>
<!-- 3&#45;&gt;10 -->
<g id="edge57" class="edge"><title>3&#45;&gt;10</title>
<path fill="none" stroke="black" d="M424.507,-793.004C395.57,-730.209 320.221,-497.284 423,-360 525.564,-223.003 745.333,-178.984 832.493,-166.967"/>
<polygon fill="black" stroke="black" points="832.991,-170.431 842.448,-165.656 832.077,-163.491 832.991,-170.431"/>
</g>
<!-- 3&#45;&gt;14 -->
<g id="edge31" class="edge"><title>3&#45;&gt;14</title>
<path fill="none" stroke="black" d="M445.194,-793.309C477.4,-747.89 568,-618.068 568,-595 568,-595 568,-595 568,-449 568,-402.266 583.925,-384.043 624,-360 671.953,-331.231 1070.24,-328.235 1126,-324 1187.43,-319.334 1258.85,-313.528 1301.13,-310.051"/>
<polygon fill="black" stroke="black" points="1301.55,-313.528 1311.23,-309.219 1300.98,-306.552 1301.55,-313.528"/>
</g>
<!-- 11 -->
<g id="node24" class="node"><title>11</title>
<ellipse fill="red" stroke="red" cx="585" cy="-738" rx="27" ry="18"/>
<text text-anchor="middle" x="585" y="-734.3" font-family="Times,serif" font-size="14.00">11</text>
</g>
<!-- 3&#45;&gt;11 -->
<g id="edge88" class="edge"><title>3&#45;&gt;11</title>
<path fill="none" stroke="black" d="M453.768,-797.441C478.926,-784.827 522.298,-764.694 552.35,-751.661"/>
<polygon fill="black" stroke="black" points="553.787,-754.853 561.6,-747.698 551.03,-748.419 553.787,-754.853"/>
</g>
<!-- 10&#45;&gt;1 -->
<g id="edge17" class="edge"><title>10&#45;&gt;1</title>
<path fill="none" stroke="black" d="M862.601,-144.411C859.486,-136.335 855.666,-126.431 852.165,-117.355"/>
<polygon fill="black" stroke="black" points="855.405,-116.027 848.54,-107.956 848.874,-118.546 855.405,-116.027"/>
</g>
<!-- 10&#45;&gt;3 -->
<g id="edge71" class="edge"><title>10&#45;&gt;3</title>
<path fill="none" stroke="black" d="M842.688,-166.732C766.243,-178.406 544.242,-222.098 441,-360 343.507,-490.223 406.291,-706.502 427.954,-782.001"/>
<polygon fill="black" stroke="black" points="424.61,-783.038 430.717,-791.696 431.342,-781.12 424.61,-783.038"/>
</g>
<!-- 10&#45;&gt;27 -->
<g id="edge159" class="edge"><title>10&#45;&gt;27</title>
<path fill="none" stroke="black" d="M895.176,-166.439C974.456,-177.597 1211.19,-212.888 1302.06,-227.042"/>
<polygon fill="black" stroke="black" points="1301.73,-230.533 1312.15,-228.621 1302.81,-223.617 1301.73,-230.533"/>
</g>
<!-- 10&#45;&gt;17 -->
<g id="edge49" class="edge"><title>10&#45;&gt;17</title>
<path fill="none" stroke="black" d="M887.999,-149.125C905.94,-137.913 933.051,-120.968 953.38,-108.263"/>
<polygon fill="black" stroke="black" points="955.283,-111.201 961.908,-102.933 951.573,-105.265 955.283,-111.201"/>
</g>
<!-- 10&#45;&gt;21 -->
<g id="edge81" class="edge"><title>10&#45;&gt;21</title>
<path fill="none" stroke="black" d="M854.81,-177.529C818.896,-214.303 724.22,-311.244 681.478,-355.008"/>
<polygon fill="black" stroke="black" points="678.848,-352.691 674.365,-362.291 683.856,-357.582 678.848,-352.691"/>
</g>
<!-- 20&#45;&gt;0 -->
<g id="edge108" class="edge"><title>20&#45;&gt;0</title>
<path fill="none" stroke="black" d="M251.297,-1548C265.788,-1587.75 316.178,-1689.08 373,-1764 382.528,-1776.56 394.822,-1789.22 406.045,-1799.01"/>
<polygon fill="black" stroke="black" points="404.044,-1801.9 413.973,-1805.6 408.515,-1796.51 404.044,-1801.9"/>
</g>
<!-- 20&#45;&gt;0 -->
<g id="edge149" class="edge"><title>20&#45;&gt;0</title>
<path fill="none" stroke="black" d="M259.666,-1546.55C282.539,-1585.23 333.473,-1688.15 391,-1764 398.832,-1774.33 408.534,-1784.72 416.883,-1793.53"/>
<polygon fill="black" stroke="black" points="414.373,-1795.97 423.79,-1800.82 419.456,-1791.16 414.373,-1795.97"/>
</g>
<!-- 20&#45;&gt;10 -->
<g id="edge96" class="edge"><title>20&#45;&gt;10</title>
<path fill="none" stroke="black" d="M222.981,-1522.56C197.273,-1514.92 157.261,-1500.09 130,-1476 95.3321,-1445.36 76,-1433.27 76,-1387 76,-1387 76,-1387 76,-881 76,-808.654 73.3345,-787.253 100,-720 211.891,-437.802 281.345,-334.105 561,-216 653.183,-177.069 772.398,-166.724 831.853,-163.983"/>
<polygon fill="black" stroke="black" points="832.051,-167.478 841.897,-163.567 831.761,-160.484 832.051,-167.478"/>
</g>
<!-- 20&#45;&gt;12 -->
<g id="edge22" class="edge"><title>20&#45;&gt;12</title>
<path fill="none" stroke="black" d="M222.579,-1523.33C182.817,-1514 108.438,-1494.62 89,-1476 8.94342,-1399.32 0,-1353.85 0,-1243 0,-1243 0,-1243 0,-737 0,-422.152 185.74,-327.983 480,-216 629.649,-159.05 674.084,-163.593 833,-144 1288.32,-87.8629 1847.27,-89.0692 1995.49,-90.5189"/>
<polygon fill="black" stroke="black" points="1995.8,-94.0223 2005.83,-90.6273 1995.87,-87.0227 1995.8,-94.0223"/>
</g>
<!-- 5 -->
<g id="node32" class="node"><title>5</title>
<ellipse fill="red" stroke="red" cx="303" cy="-1458" rx="27" ry="18"/>
<text text-anchor="middle" x="303" y="-1454.3" font-family="Times,serif" font-size="14.00">5</text>
</g>
<!-- 20&#45;&gt;5 -->
<g id="edge142" class="edge"><title>20&#45;&gt;5</title>
<path fill="none" stroke="black" d="M259.934,-1513.81C267.214,-1504.55 276.663,-1492.52 284.854,-1482.09"/>
<polygon fill="black" stroke="black" points="287.663,-1484.18 291.089,-1474.16 282.159,-1479.86 287.663,-1484.18"/>
</g>
<!-- 24&#45;&gt;20 -->
<g id="edge93" class="edge"><title>24&#45;&gt;20</title>
<path fill="none" stroke="black" d="M1454.1,-1599.47C1294.23,-1590.4 469.781,-1543.59 284.846,-1533.09"/>
<polygon fill="black" stroke="black" points="284.991,-1529.59 274.809,-1532.52 284.594,-1536.58 284.991,-1529.59"/>
</g>
<!-- 24&#45;&gt;19 -->
<g id="edge141" class="edge"><title>24&#45;&gt;19</title>
<path fill="none" stroke="black" d="M1491.69,-1585.17C1503.78,-1567.31 1524.12,-1537.44 1542,-1512 1746.42,-1221.05 1925.28,-1182.16 1957,-828 1981.82,-550.854 2036.12,-397.258 1825,-216 1747.5,-149.459 1694.87,-212.405 1598,-180 1596.96,-179.651 1595.91,-179.27 1594.85,-178.863"/>
<polygon fill="black" stroke="black" points="1596.07,-175.574 1585.52,-174.67 1593.21,-181.96 1596.07,-175.574"/>
</g>
<!-- 24&#45;&gt;21 -->
<g id="edge99" class="edge"><title>24&#45;&gt;21</title>
<path fill="none" stroke="black" d="M1457.59,-1592.9C1412.94,-1575.8 1320,-1531.49 1320,-1459 1320,-1459 1320,-1459 1320,-1169 1320,-1120.79 1287.24,-1118.33 1258,-1080 1156.95,-947.519 1125.76,-919.077 1018,-792 943.201,-703.797 848,-710.649 848,-595 848,-595 848,-595 848,-521 848,-445.108 749.244,-404.633 694.884,-388.102"/>
<polygon fill="black" stroke="black" points="695.545,-384.649 684.965,-385.201 693.58,-391.367 695.545,-384.649"/>
</g>
<!-- 12&#45;&gt;15 -->
<g id="edge77" class="edge"><title>12&#45;&gt;15</title>
<path fill="none" stroke="black" d="M2006.17,-92.5496C1884.81,-99.9703 1387.53,-134.915 1258,-216 1014.5,-368.436 1155.95,-560.972 1050,-828 1035.44,-864.695 1012.03,-903.939 996.334,-928.465"/>
<polygon fill="black" stroke="black" points="993.234,-926.813 990.732,-937.109 999.108,-930.62 993.234,-926.813"/>
</g>
<!-- 12&#45;&gt;24 -->
<g id="edge95" class="edge"><title>12&#45;&gt;24</title>
<path fill="none" stroke="black" d="M2050.12,-104.199C2086.04,-132.566 2166,-199.476 2166,-233 2166,-379 2166,-379 2166,-379 2166,-671.867 2036,-732.133 2036,-1025 2036,-1099 2036,-1099 2036,-1099 2036,-1175.84 2012.89,-1194.33 1973,-1260 1858.14,-1449.08 1754.78,-1431.02 1567,-1548 1547.66,-1560.05 1525.79,-1573.52 1508.95,-1583.87"/>
<polygon fill="black" stroke="black" points="1506.85,-1581.05 1500.16,-1589.26 1510.51,-1587.02 1506.85,-1581.05"/>
</g>
<!-- 16&#45;&gt;8 -->
<g id="edge12" class="edge"><title>16&#45;&gt;8</title>
<path fill="none" stroke="black" d="M644,-1223.7C644,-1215.98 644,-1206.71 644,-1198.11"/>
<polygon fill="black" stroke="black" points="647.5,-1198.1 644,-1188.1 640.5,-1198.1 647.5,-1198.1"/>
</g>
<!-- 16&#45;&gt;22 -->
<g id="edge111" class="edge"><title>16&#45;&gt;22</title>
<path fill="none" stroke="black" d="M670.998,-1244.87C802.595,-1254.45 1375.45,-1297.97 1527.76,-1309.94"/>
<polygon fill="black" stroke="black" points="1527.74,-1313.45 1537.99,-1310.75 1528.29,-1306.47 1527.74,-1313.45"/>
</g>
<!-- 16&#45;&gt;9 -->
<g id="edge114" class="edge"><title>16&#45;&gt;9</title>
<path fill="none" stroke="black" d="M626.783,-1255.87C593.301,-1280.89 519.254,-1336.23 479.848,-1365.68"/>
<polygon fill="black" stroke="black" points="477.449,-1363.11 471.534,-1371.9 481.64,-1368.71 477.449,-1363.11"/>
</g>
<!-- 16&#45;&gt;12 -->
<g id="edge122" class="edge"><title>16&#45;&gt;12</title>
<path fill="none" stroke="black" d="M668.85,-1234.75C762.221,-1209.96 1095.27,-1109.52 1263,-900 1289.77,-866.558 1300,-853.838 1300,-811 1300,-811 1300,-811 1300,-737 1300,-358.906 1855.71,-149.479 1999.41,-101.643"/>
<polygon fill="black" stroke="black" points="2000.62,-104.928 2009.03,-98.4784 1998.44,-98.2786 2000.62,-104.928"/>
</g>
<!-- 16&#45;&gt;11 -->
<g id="edge160" class="edge"><title>16&#45;&gt;11</title>
<path fill="none" stroke="black" d="M630.497,-1225.99C622.385,-1215.99 612.744,-1202.13 608,-1188 556.84,-1035.62 573.105,-837.857 581.424,-766.324"/>
<polygon fill="black" stroke="black" points="584.907,-766.676 582.632,-756.328 577.957,-765.836 584.907,-766.676"/>
</g>
<!-- 16&#45;&gt;26 -->
<g id="edge127" class="edge"><title>16&#45;&gt;26</title>
<path fill="none" stroke="black" d="M658.295,-1226.23C680.31,-1201.85 720,-1150.73 720,-1099 720,-1099 720,-1099 720,-1025 720,-980.868 695.397,-934.519 677.966,-907.22"/>
<polygon fill="black" stroke="black" points="680.796,-905.153 672.376,-898.722 674.948,-909 680.796,-905.153"/>
</g>
<!-- 19&#45;&gt;15 -->
<g id="edge79" class="edge"><title>19&#45;&gt;15</title>
<path fill="none" stroke="black" d="M1539.31,-165.801C1481.27,-171.841 1346.86,-187.866 1311,-216 1193.21,-308.413 1168,-371.285 1168,-521 1168,-811 1168,-811 1168,-811 1168,-886.246 1069.72,-927.947 1015.14,-944.5"/>
<polygon fill="black" stroke="black" points="1014.12,-941.152 1005.5,-947.301 1016.07,-947.874 1014.12,-941.152"/>
</g>
<!-- 19&#45;&gt;12 -->
<g id="edge134" class="edge"><title>19&#45;&gt;12</title>
<path fill="none" stroke="black" d="M1592.11,-157.087C1670.82,-145.288 1905.95,-110.044 1996.71,-96.4403"/>
<polygon fill="black" stroke="black" points="1997.42,-99.8729 2006.79,-94.9291 1996.38,-92.9502 1997.42,-99.8729"/>
</g>
<!-- 19&#45;&gt;17 -->
<g id="edge44" class="edge"><title>19&#45;&gt;17</title>
<path fill="none" stroke="black" d="M1539.34,-157.81C1444.92,-146.512 1126.23,-108.377 1017.61,-95.3811"/>
<polygon fill="black" stroke="black" points="1017.82,-91.8813 1007.48,-94.1683 1016.99,-98.8317 1017.82,-91.8813"/>
</g>
<!-- 19&#45;&gt;23 -->
<g id="edge112" class="edge"><title>19&#45;&gt;23</title>
<path fill="none" stroke="black" d="M1566,-180.049C1566,-206.708 1566,-259.885 1566,-305 1566,-379 1566,-379 1566,-379 1566,-419.969 1558.84,-430.651 1542,-468 1537.45,-478.103 1531.07,-488.441 1525.01,-497.274"/>
<polygon fill="black" stroke="black" points="1522.08,-495.362 1519.13,-505.54 1527.78,-499.419 1522.08,-495.362"/>
</g>
<!-- 27&#45;&gt;8 -->
<g id="edge119" class="edge"><title>27&#45;&gt;8</title>
<path fill="none" stroke="black" d="M1310.98,-236.233C1189.94,-242.227 698.216,-271.721 577,-360 275.071,-579.887 321.381,-734.237 355,-828 407.925,-975.605 557.35,-1102.64 617.967,-1149.62"/>
<polygon fill="black" stroke="black" points="616.178,-1152.66 626.244,-1155.97 620.436,-1147.11 616.178,-1152.66"/>
</g>
<!-- 27&#45;&gt;10 -->
<g id="edge140" class="edge"><title>27&#45;&gt;10</title>
<path fill="none" stroke="black" d="M1311.59,-229.529C1232.15,-218.344 996.099,-183.154 905.157,-168.992"/>
<polygon fill="black" stroke="black" points="905.477,-165.499 895.056,-167.411 904.395,-172.415 905.477,-165.499"/>
</g>
<!-- 27&#45;&gt;19 -->
<g id="edge138" class="edge"><title>27&#45;&gt;19</title>
<path fill="none" stroke="black" d="M1361.97,-225.641C1402.76,-213.116 1485.79,-187.625 1532.38,-173.323"/>
<polygon fill="black" stroke="black" points="1533.48,-176.646 1542.01,-170.365 1531.42,-169.955 1533.48,-176.646"/>
</g>
<!-- 27&#45;&gt;14 -->
<g id="edge4" class="edge"><title>27&#45;&gt;14</title>
<path fill="none" stroke="black" d="M1338,-252.104C1338,-259.791 1338,-269.054 1338,-277.665"/>
<polygon fill="black" stroke="black" points="1334.5,-277.697 1338,-287.697 1341.5,-277.697 1334.5,-277.697"/>
</g>
<!-- 27&#45;&gt;14 -->
<g id="edge113" class="edge"><title>27&#45;&gt;14</title>
<path fill="none" stroke="black" d="M1349.43,-250.492C1351.45,-259.003 1351.99,-269.776 1351.05,-279.492"/>
<polygon fill="black" stroke="black" points="1347.58,-279.035 1349.44,-289.465 1354.49,-280.15 1347.58,-279.035"/>
</g>
<!-- 28 -->
<g id="node27" class="node"><title>28</title>
<ellipse fill="red" stroke="red" cx="1665" cy="-450" rx="27" ry="18"/>
<text text-anchor="middle" x="1665" y="-446.3" font-family="Times,serif" font-size="14.00">28</text>
</g>
<!-- 27&#45;&gt;28 -->
<g id="edge68" class="edge"><title>27&#45;&gt;28</title>
<path fill="none" stroke="black" d="M1362.09,-242.642C1388.57,-251.564 1431.89,-267.719 1466,-288 1535.96,-329.594 1607.67,-394.078 1642.82,-427.411"/>
<polygon fill="black" stroke="black" points="1640.5,-430.038 1650.15,-434.416 1645.34,-424.977 1640.5,-430.038"/>
</g>
<!-- 14&#45;&gt;15 -->
<g id="edge152" class="edge"><title>14&#45;&gt;15</title>
<path fill="none" stroke="black" d="M1329.68,-323.337C1302.87,-365.454 1224,-482.198 1224,-593 1224,-811 1224,-811 1224,-811 1224,-853.187 1222.26,-871.674 1191,-900 1165.94,-922.709 1070.12,-940.467 1016.51,-948.43"/>
<polygon fill="black" stroke="black" points="1015.78,-944.998 1006.38,-949.89 1016.78,-951.927 1015.78,-944.998"/>
</g>
<!-- 14&#45;&gt;2 -->
<g id="edge136" class="edge"><title>14&#45;&gt;2</title>
<path fill="none" stroke="black" d="M1365.15,-307.4C1434.75,-309.858 1619.31,-326.257 1710,-432 1845.81,-590.355 1751.79,-691.466 1746,-900 1745.11,-932.015 1751.58,-941.142 1743,-972 1739.93,-983.028 1734.21,-994.284 1727.96,-1003.57"/>
<polygon fill="black" stroke="black" points="1725.01,-1001.68 1721.87,-1011.8 1730.63,-1005.84 1725.01,-1001.68"/>
</g>
<!-- 14&#45;&gt;7 -->
<g id="edge6" class="edge"><title>14&#45;&gt;7</title>
<path fill="none" stroke="black" d="M1338.97,-324.279C1340.62,-363.784 1341.43,-463.219 1314,-540 1310.27,-550.436 1304.08,-560.846 1297.93,-569.643"/>
<polygon fill="black" stroke="black" points="1295,-567.716 1291.88,-577.842 1300.63,-571.868 1295,-567.716"/>
</g>
<!-- 14&#45;&gt;24 -->
<g id="edge50" class="edge"><title>14&#45;&gt;24</title>
<path fill="none" stroke="black" d="M1343.45,-323.932C1362.99,-385.713 1429.49,-605.165 1450,-792 1468.3,-958.705 1434,-1001.29 1434,-1169 1434,-1459 1434,-1459 1434,-1459 1434,-1501.74 1453.43,-1548.22 1467.3,-1575.96"/>
<polygon fill="black" stroke="black" points="1464.25,-1577.67 1471.94,-1584.96 1470.47,-1574.47 1464.25,-1577.67"/>
</g>
<!-- 14&#45;&gt;27 -->
<g id="edge150" class="edge"><title>14&#45;&gt;27</title>
<path fill="none" stroke="black" d="M1326.56,-289.465C1324.54,-280.946 1324.01,-270.171 1324.96,-260.458"/>
<polygon fill="black" stroke="black" points="1328.43,-260.923 1326.57,-250.492 1321.52,-259.804 1328.43,-260.923"/>
</g>
<!-- 14&#45;&gt;26 -->
<g id="edge59" class="edge"><title>14&#45;&gt;26</title>
<path fill="none" stroke="black" d="M1320.51,-319.778C1306.21,-330.336 1285.56,-345.838 1268,-360 1034.94,-547.961 763.916,-788.852 684.171,-860.209"/>
<polygon fill="black" stroke="black" points="681.756,-857.673 676.641,-866.952 686.426,-862.888 681.756,-857.673"/>
</g>
<!-- 18&#45;&gt;7 -->
<g id="edge7" class="edge"><title>18&#45;&gt;7</title>
<path fill="none" stroke="black" d="M1150,-36.0493C1150,-62.7084 1150,-115.885 1150,-161 1150,-307 1150,-307 1150,-307 1150,-403.445 1201.84,-415.863 1241,-504 1250.4,-525.147 1260.68,-549.302 1268.18,-567.106"/>
<polygon fill="black" stroke="black" points="1265.04,-568.67 1272.14,-576.534 1271.49,-565.959 1265.04,-568.67"/>
</g>
<!-- 18&#45;&gt;13 -->
<g id="edge101" class="edge"><title>18&#45;&gt;13</title>
<path fill="none" stroke="black" d="M1122.83,-18.7358C994.129,-18.113 447.84,-22.7239 344,-144 145.666,-375.637 236.675,-569.221 398,-828 494.194,-982.304 714.807,-1061.71 799.771,-1087.44"/>
<polygon fill="black" stroke="black" points="798.86,-1090.82 809.443,-1090.31 800.854,-1084.11 798.86,-1090.82"/>
</g>
<!-- 18&#45;&gt;14 -->
<g id="edge2" class="edge"><title>18&#45;&gt;14</title>
<path fill="none" stroke="black" d="M1160.22,-34.8876C1184.55,-72.6684 1247.94,-170.788 1302,-252 1308.29,-261.444 1315.28,-271.777 1321.42,-280.79"/>
<polygon fill="black" stroke="black" points="1318.68,-282.994 1327.21,-289.282 1324.47,-279.049 1318.68,-282.994"/>
</g>
<!-- 17&#45;&gt;15 -->
<g id="edge97" class="edge"><title>17&#45;&gt;15</title>
<path fill="none" stroke="black" d="M980.802,-108.049C980.511,-134.708 980,-187.884 980,-233 980,-379 980,-379 980,-379 980,-594.645 969.111,-648.377 966,-864 965.769,-879.998 963.94,-884.133 966,-900 967.133,-908.723 969.272,-918.055 971.544,-926.42"/>
<polygon fill="black" stroke="black" points="968.184,-927.402 974.322,-936.038 974.909,-925.459 968.184,-927.402"/>
</g>
<!-- 17&#45;&gt;15 -->
<g id="edge151" class="edge"><title>17&#45;&gt;15</title>
<path fill="none" stroke="black" d="M991.913,-106.759C998.528,-132.962 998,-187.145 998,-233 998,-379 998,-379 998,-379 998,-594.645 987.111,-648.377 984,-864 983.769,-879.998 981.94,-884.133 984,-900 985.155,-908.892 987.356,-918.418 988.779,-926.907"/>
<polygon fill="black" stroke="black" points="985.324,-927.486 990.029,-936.978 992.271,-926.624 985.324,-927.486"/>
</g>
<!-- 17&#45;&gt;2 -->
<g id="edge14" class="edge"><title>17&#45;&gt;2</title>
<path fill="none" stroke="black" d="M1007.93,-91.4517C1164.61,-94.1986 1952.88,-109.696 1990,-144 2238.57,-373.739 2026.36,-586.805 1898,-900 1884.28,-933.481 1887.5,-948.488 1860,-972 1826.11,-1000.97 1775.59,-1014.34 1741.53,-1020.34"/>
<polygon fill="black" stroke="black" points="1740.83,-1016.91 1731.52,-1021.98 1741.96,-1023.82 1740.83,-1016.91"/>
</g>
<!-- 17&#45;&gt;18 -->
<g id="edge145" class="edge"><title>17&#45;&gt;18</title>
<path fill="none" stroke="black" d="M1003.56,-79.6452C1009.55,-77.1597 1016.02,-74.4777 1022,-72 1054.71,-58.448 1092.12,-42.9583 1118.01,-32.2395"/>
<polygon fill="black" stroke="black" points="1119.44,-35.4377 1127.34,-28.379 1116.76,-28.9699 1119.44,-35.4377"/>
</g>
<!-- 23&#45;&gt;0 -->
<g id="edge147" class="edge"><title>23&#45;&gt;0</title>
<path fill="none" stroke="black" d="M1528.49,-533.26C1549.41,-543.457 1581.91,-559.864 1609,-576 1756.1,-663.621 1799.02,-679.389 1928,-792 1992.73,-848.512 2008.82,-864.852 2057,-936 2117.07,-1024.71 2128.15,-1051.04 2164,-1152 2358.5,-1699.77 2294.26,-1672.72 2278,-1692 2155.61,-1837.1 2045.82,-1744.42 1857,-1764 1308.39,-1820.88 635.234,-1818.87 471.281,-1817.42"/>
<polygon fill="black" stroke="black" points="471.257,-1813.92 461.225,-1817.32 471.191,-1820.92 471.257,-1813.92"/>
</g>
<!-- 23&#45;&gt;2 -->
<g id="edge74" class="edge"><title>23&#45;&gt;2</title>
<path fill="none" stroke="black" d="M1523.71,-536.169C1537.38,-545.434 1555.76,-559.166 1567,-576 1668.17,-727.529 1613.01,-799.961 1673,-972 1676.43,-981.841 1680.87,-992.425 1685.53,-1001.53"/>
<polygon fill="black" stroke="black" points="1682.52,-1003.33 1690.43,-1010.38 1688.65,-999.94 1682.52,-1003.33"/>
</g>
<!-- 23&#45;&gt;2 -->
<g id="edge102" class="edge"><title>23&#45;&gt;2</title>
<path fill="none" stroke="black" d="M1530.31,-531.458C1548.28,-540.418 1571.66,-556.025 1585,-576 1686.17,-727.529 1631.01,-799.961 1691,-972 1694.01,-980.619 1697.78,-989.807 1700.99,-998.071"/>
<polygon fill="black" stroke="black" points="1697.77,-999.446 1704.55,-1007.59 1704.33,-997 1697.77,-999.446"/>
</g>
<!-- 23&#45;&gt;9 -->
<g id="edge158" class="edge"><title>23&#45;&gt;9</title>
<path fill="none" stroke="black" d="M1495.67,-538.385C1488.26,-548.762 1478.57,-562.902 1471,-576 1390.94,-714.55 1388.01,-758.131 1314,-900 1284.55,-956.453 1244,-961.326 1244,-1025 1244,-1243 1244,-1243 1244,-1243 1244,-1320.56 646.508,-1370.61 490.761,-1382.34"/>
<polygon fill="black" stroke="black" points="490.449,-1378.86 480.737,-1383.09 490.97,-1385.84 490.449,-1378.86"/>
</g>
<!-- 23&#45;&gt;24 -->
<g id="edge63" class="edge"><title>23&#45;&gt;24</title>
<path fill="none" stroke="black" d="M1504.78,-540.106C1502.39,-558.057 1498.33,-587.077 1494,-612 1493.41,-615.385 1396,-1093.56 1396,-1097 1396,-1459 1396,-1459 1396,-1459 1396,-1499.97 1398.26,-1513.28 1420,-1548 1428.57,-1561.68 1441.76,-1573.77 1453.68,-1582.94"/>
<polygon fill="black" stroke="black" points="1451.92,-1585.99 1462.06,-1589.08 1456.06,-1580.34 1451.92,-1585.99"/>
</g>
<!-- 23&#45;&gt;27 -->
<g id="edge91" class="edge"><title>23&#45;&gt;27</title>
<path fill="none" stroke="black" d="M1498.39,-504.928C1477.81,-466.749 1423.79,-367.832 1374,-288 1368,-278.373 1361.06,-268.004 1354.89,-259.012"/>
<polygon fill="black" stroke="black" points="1357.61,-256.787 1349.04,-250.558 1351.85,-260.772 1357.61,-256.787"/>
</g>
<!-- 23&#45;&gt;14 -->
<g id="edge38" class="edge"><title>23&#45;&gt;14</title>
<path fill="none" stroke="black" d="M1487.29,-509.65C1472.17,-500.129 1451.64,-485.327 1438,-468 1405.5,-426.731 1419.53,-403.44 1390,-360 1381.99,-348.224 1371.21,-336.742 1361.55,-327.493"/>
<polygon fill="black" stroke="black" points="1363.82,-324.825 1354.1,-320.591 1359.06,-329.958 1363.82,-324.825"/>
</g>
<!-- 23&#45;&gt;17 -->
<g id="edge87" class="edge"><title>23&#45;&gt;17</title>
<path fill="none" stroke="black" d="M1504.74,-503.77C1497.01,-451.849 1466.7,-295.584 1374,-216 1267.38,-124.466 1093.24,-99.8118 1017.79,-93.2901"/>
<polygon fill="black" stroke="black" points="1018.06,-89.801 1007.81,-92.4852 1017.5,-96.7783 1018.06,-89.801"/>
</g>
<!-- 23&#45;&gt;28 -->
<g id="edge128" class="edge"><title>23&#45;&gt;28</title>
<path fill="none" stroke="black" d="M1528.97,-511.267C1556.21,-499.199 1602.81,-478.551 1633.76,-464.839"/>
<polygon fill="black" stroke="black" points="1635.49,-467.901 1643.22,-460.651 1632.66,-461.501 1635.49,-467.901"/>
</g>
<!-- 11&#45;&gt;3 -->
<g id="edge15" class="edge"><title>11&#45;&gt;3</title>
<path fill="none" stroke="black" d="M565.466,-750.442C540.275,-763.082 496.558,-783.376 466.403,-796.446"/>
<polygon fill="black" stroke="black" points="464.945,-793.263 457.13,-800.417 467.7,-799.698 464.945,-793.263"/>
</g>
<!-- 11&#45;&gt;23 -->
<g id="edge139" class="edge"><title>11&#45;&gt;23</title>
<path fill="none" stroke="black" d="M611.781,-734.983C708.527,-727.16 1048.29,-695.037 1315,-612 1375.38,-593.202 1441.36,-559.45 1478.12,-539.349"/>
<polygon fill="black" stroke="black" points="1480.18,-542.206 1487.24,-534.308 1476.8,-536.078 1480.18,-542.206"/>
</g>
<!-- 11&#45;&gt;25 -->
<g id="edge28" class="edge"><title>11&#45;&gt;25</title>
<path fill="none" stroke="black" d="M591.094,-720.411C600.609,-709.258 616.302,-694.618 630.678,-683.487"/>
<polygon fill="black" stroke="black" points="632.968,-686.147 638.933,-677.391 628.81,-680.516 632.968,-686.147"/>
</g>
<!-- 25&#45;&gt;7 -->
<g id="edge45" class="edge"><title>25&#45;&gt;7</title>
<path fill="none" stroke="black" d="M685.123,-658.675C702.985,-655.193 727.274,-650.986 749,-648 933.171,-622.69 1155.51,-604 1242.14,-597.501"/>
<polygon fill="black" stroke="black" points="1242.55,-600.981 1252.26,-596.752 1242.03,-594 1242.55,-600.981"/>
</g>
<!-- 25&#45;&gt;7 -->
<g id="edge72" class="edge"><title>25&#45;&gt;7</title>
<path fill="none" stroke="black" d="M686.263,-661.208C708.19,-657.462 739.628,-651.762 767,-648 944.721,-623.577 1157.99,-605.317 1242.31,-598.229"/>
<polygon fill="black" stroke="black" points="1242.74,-601.705 1252.41,-597.381 1242.15,-594.73 1242.74,-601.705"/>
</g>
<!-- 25&#45;&gt;8 -->
<g id="edge47" class="edge"><title>25&#45;&gt;8</title>
<path fill="none" stroke="black" d="M655.938,-683.993C648.054,-717.946 630.932,-796.698 625,-864 615.979,-966.347 631.479,-1088.39 639.564,-1141.76"/>
<polygon fill="black" stroke="black" points="636.127,-1142.43 641.118,-1151.78 643.044,-1141.36 636.127,-1142.43"/>
</g>
<!-- 25&#45;&gt;3 -->
<g id="edge98" class="edge"><title>25&#45;&gt;3</title>
<path fill="none" stroke="black" d="M637.152,-676.21C614.179,-685.858 578.092,-702.081 549,-720 515.305,-740.753 479.758,-769.46 457.26,-788.599"/>
<polygon fill="black" stroke="black" points="454.896,-786.015 449.589,-795.185 459.456,-791.326 454.896,-786.015"/>
</g>
<!-- 25&#45;&gt;11 -->
<g id="edge9" class="edge"><title>25&#45;&gt;11</title>
<path fill="none" stroke="black" d="M644.845,-681.144C634.177,-691.102 619.71,-704.604 607.672,-715.839"/>
<polygon fill="black" stroke="black" points="605.1,-713.453 600.177,-722.834 609.876,-718.57 605.1,-713.453"/>
</g>
<!-- 25&#45;&gt;11 -->
<g id="edge118" class="edge"><title>25&#45;&gt;11</title>
<path fill="none" stroke="black" d="M653.778,-683.739C644.311,-694.802 628.831,-709.247 614.594,-720.302"/>
<polygon fill="black" stroke="black" points="612.359,-717.602 606.41,-726.369 616.528,-723.226 612.359,-717.602"/>
</g>
<!-- 25&#45;&gt;21 -->
<g id="edge54" class="edge"><title>25&#45;&gt;21</title>
<path fill="none" stroke="black" d="M653.249,-648.387C644.78,-600.801 644.282,-463.683 651.753,-405.554"/>
<polygon fill="black" stroke="black" points="655.215,-406.068 653.24,-395.659 648.293,-405.027 655.215,-406.068"/>
</g>
<!-- 21&#45;&gt;15 -->
<g id="edge62" class="edge"><title>21&#45;&gt;15</title>
<path fill="none" stroke="black" d="M682.782,-387.992C724.744,-406.227 810,-451.791 810,-521 810,-667 810,-667 810,-667 810,-772.386 787.764,-818.031 854,-900 866.03,-914.888 912.929,-932.057 945.976,-942.722"/>
<polygon fill="black" stroke="black" points="945.143,-946.129 955.734,-945.813 947.258,-939.456 945.143,-946.129"/>
</g>
<!-- 21&#45;&gt;1 -->
<g id="edge153" class="edge"><title>21&#45;&gt;1</title>
<path fill="none" stroke="black" d="M668.563,-360.757C678.123,-342.789 694.201,-313.06 709,-288 747.497,-222.81 756.205,-205.756 800,-144 807.176,-133.882 815.582,-123.088 822.982,-113.899"/>
<polygon fill="black" stroke="black" points="825.831,-115.942 829.43,-105.977 820.402,-111.523 825.831,-115.942"/>
</g>
<!-- 21&#45;&gt;9 -->
<g id="edge43" class="edge"><title>21&#45;&gt;9</title>
<path fill="none" stroke="black" d="M638.775,-389.394C546.903,-439.449 190,-665.101 190,-953 190,-1027 190,-1027 190,-1027 190,-1184.74 356.272,-1321.17 425.028,-1367.84"/>
<polygon fill="black" stroke="black" points="423.407,-1370.97 433.675,-1373.58 427.278,-1365.14 423.407,-1370.97"/>
</g>
<!-- 21&#45;&gt;9 -->
<g id="edge106" class="edge"><title>21&#45;&gt;9</title>
<path fill="none" stroke="black" d="M641.474,-391.306C556.242,-444.969 208,-668.615 208,-953 208,-1027 208,-1027 208,-1027 208,-1181.51 367.518,-1315.56 429.768,-1364.86"/>
<polygon fill="black" stroke="black" points="427.857,-1367.81 437.879,-1371.25 432.188,-1362.31 427.857,-1367.81"/>
</g>
<!-- 21&#45;&gt;14 -->
<g id="edge144" class="edge"><title>21&#45;&gt;14</title>
<path fill="none" stroke="black" d="M686.578,-374.256C791.741,-363.398 1178.94,-323.423 1300.93,-310.827"/>
<polygon fill="black" stroke="black" points="1301.65,-314.272 1311.24,-309.763 1300.93,-307.309 1301.65,-314.272"/>
</g>
<!-- 21&#45;&gt;25 -->
<g id="edge11" class="edge"><title>21&#45;&gt;25</title>
<path fill="none" stroke="black" d="M660,-396.306C660,-444.313 660,-579.439 660,-637.702"/>
<polygon fill="black" stroke="black" points="656.5,-637.966 660,-647.966 663.5,-637.966 656.5,-637.966"/>
</g>
<!-- 21&#45;&gt;25 -->
<g id="edge80" class="edge"><title>21&#45;&gt;25</title>
<path fill="none" stroke="black" d="M666.76,-395.659C675.205,-443.204 675.714,-579.855 668.286,-638.139"/>
<polygon fill="black" stroke="black" points="664.772,-637.979 666.751,-648.387 671.694,-639.016 664.772,-637.979"/>
</g>
<!-- 21&#45;&gt;30 -->
<g id="edge110" class="edge"><title>21&#45;&gt;30</title>
<path fill="none" stroke="black" d="M634.024,-383.117C596.395,-389.761 525.187,-404.925 470,-432 346.222,-492.727 162.773,-628.791 100,-720 56.5283,-783.164 38,-804.322 38,-881 38,-1243 38,-1243 38,-1243 38,-1347.1 2.11026,-1390.85 62,-1476 104.542,-1536.49 140.742,-1528.23 212,-1548 465.889,-1618.43 1316.81,-1662.31 1504.96,-1671.29"/>
<polygon fill="black" stroke="black" points="1505.01,-1674.79 1515.16,-1671.77 1505.34,-1667.8 1505.01,-1674.79"/>
</g>
<!-- 21&#45;&gt;5 -->
<g id="edge126" class="edge"><title>21&#45;&gt;5</title>
<path fill="none" stroke="black" d="M635.742,-385.981C607.273,-394.68 559.113,-410.996 521,-432 517.907,-433.705 114,-733.468 114,-737 114,-883 114,-883 114,-883 114,-979.599 152,-1000.4 152,-1097 152,-1171 152,-1171 152,-1171 152,-1280.91 240.285,-1389.95 281.843,-1435.19"/>
<polygon fill="black" stroke="black" points="279.412,-1437.72 288.794,-1442.64 284.528,-1432.94 279.412,-1437.72"/>
</g>
<!-- 28&#45;&gt;2 -->
<g id="edge52" class="edge"><title>28&#45;&gt;2</title>
<path fill="none" stroke="black" d="M1666.51,-468.105C1670.44,-478.223 1676.19,-491.473 1679,-504 1720.5,-688.686 1705.53,-919.376 1703.58,-997.608"/>
<polygon fill="black" stroke="black" points="1700.08,-997.552 1703.39,-1007.61 1707.08,-997.68 1700.08,-997.552"/>
</g>
<!-- 28&#45;&gt;2 -->
<g id="edge124" class="edge"><title>28&#45;&gt;2</title>
<path fill="none" stroke="black" d="M1680.23,-464.902C1687.14,-475.316 1693.88,-490.103 1697,-504 1738.59,-689.107 1723.47,-920.429 1711.68,-998.141"/>
<polygon fill="black" stroke="black" points="1708.22,-997.631 1710.04,-1008.07 1715.12,-998.768 1708.22,-997.631"/>
</g>
<!-- 28&#45;&gt;24 -->
<g id="edge76" class="edge"><title>28&#45;&gt;24</title>
<path fill="none" stroke="black" d="M1656.68,-467.239C1635.26,-523.785 1584,-717.505 1584,-881 1584,-1027 1584,-1027 1584,-1027 1584,-1163.51 1472,-1176.49 1472,-1313 1472,-1459 1472,-1459 1472,-1459 1472,-1499.22 1472,-1545.85 1474.33,-1574.39"/>
<polygon fill="black" stroke="black" points="1470.85,-1574.79 1475.34,-1584.39 1477.82,-1574.08 1470.85,-1574.79"/>
</g>
<!-- 28&#45;&gt;24 -->
<g id="edge78" class="edge"><title>28&#45;&gt;24</title>
<path fill="none" stroke="black" d="M1663.72,-468.033C1652.78,-525.578 1602,-718.262 1602,-881 1602,-1027 1602,-1027 1602,-1027 1602,-1163.51 1490,-1176.49 1490,-1313 1490,-1459 1490,-1459 1490,-1459 1490,-1499.22 1490,-1545.85 1487.67,-1574.39"/>
<polygon fill="black" stroke="black" points="1484.18,-1574.08 1486.66,-1584.39 1491.15,-1574.79 1484.18,-1574.08"/>
</g>
<!-- 28&#45;&gt;21 -->
<g id="edge109" class="edge"><title>28&#45;&gt;21</title>
<path fill="none" stroke="black" d="M1638.12,-447.128C1498.82,-437.425 859.318,-392.883 697.36,-381.602"/>
<polygon fill="black" stroke="black" points="697.184,-378.082 686.964,-380.878 696.697,-385.065 697.184,-378.082"/>
</g>
<!-- 31&#45;&gt;7 -->
<g id="edge131" class="edge"><title>31&#45;&gt;7</title>
<path fill="none" stroke="black" d="M1403.85,-792.915C1380.44,-755.799 1322.51,-663.966 1294.56,-619.673"/>
<polygon fill="black" stroke="black" points="1297.38,-617.57 1289.08,-610.98 1291.46,-621.305 1297.38,-617.57"/>
</g>
<!-- 31&#45;&gt;9 -->
<g id="edge154" class="edge"><title>31&#45;&gt;9</title>
<path fill="none" stroke="black" d="M1410.07,-827.908C1405.74,-845.943 1398.27,-875.26 1390,-900 1349.16,-1022.19 1282,-1040.17 1282,-1169 1282,-1243 1282,-1243 1282,-1243 1282,-1283.97 1289.68,-1306.03 1258,-1332 1198.17,-1381.04 641.508,-1384.9 491.233,-1385.05"/>
<polygon fill="black" stroke="black" points="491.126,-1381.55 481.128,-1385.05 491.129,-1388.55 491.126,-1381.55"/>
</g>
<!-- 31&#45;&gt;12 -->
<g id="edge23" class="edge"><title>31&#45;&gt;12</title>
<path fill="none" stroke="black" d="M1421.61,-792.376C1451.98,-726.663 1565.86,-485.982 1629,-432 1731.96,-343.976 1799.26,-395.987 1914,-324 1953.41,-299.273 1961.88,-289.068 1990,-252 2011.87,-223.174 2018.32,-214.864 2028,-180 2033.62,-159.777 2034.68,-136.003 2034.45,-118.115"/>
<polygon fill="black" stroke="black" points="2037.95,-117.98 2034.17,-108.08 2030.95,-118.172 2037.95,-117.98"/>
</g>
<!-- 31&#45;&gt;23 -->
<g id="edge20" class="edge"><title>31&#45;&gt;23</title>
<path fill="none" stroke="black" d="M1418.15,-792.163C1422.67,-774.187 1430.29,-744.919 1438,-720 1457.1,-658.295 1483.05,-587.015 1497.06,-549.406"/>
<polygon fill="black" stroke="black" points="1500.45,-550.319 1500.67,-539.727 1493.89,-547.869 1500.45,-550.319"/>
</g>
<!-- 31&#45;&gt;21 -->
<g id="edge33" class="edge"><title>31&#45;&gt;21</title>
<path fill="none" stroke="black" d="M1396.08,-796.222C1307.89,-733.404 921.789,-459.269 862,-432 806.805,-406.827 737.469,-391.919 696.055,-384.611"/>
<polygon fill="black" stroke="black" points="696.601,-381.154 686.153,-382.915 695.419,-388.053 696.601,-381.154"/>
</g>
<!-- 29&#45;&gt;2 -->
<g id="edge92" class="edge"><title>29&#45;&gt;2</title>
<path fill="none" stroke="black" d="M1752.07,-1368.87C1757.28,-1358.65 1763.31,-1344.96 1766,-1332 1775.76,-1285 1773.18,-1271.46 1766,-1224 1756.45,-1160.9 1730.63,-1090.17 1715.82,-1053.02"/>
<polygon fill="black" stroke="black" points="1718.95,-1051.43 1711.96,-1043.47 1712.46,-1054.05 1718.95,-1051.43"/>
</g>
<!-- 29&#45;&gt;6 -->
<g id="edge137" class="edge"><title>29&#45;&gt;6</title>
<path fill="none" stroke="black" d="M1735.53,-1368.43C1724.5,-1343.96 1703.75,-1297.91 1690.69,-1268.94"/>
<polygon fill="black" stroke="black" points="1693.72,-1267.14 1686.42,-1259.46 1687.34,-1270.02 1693.72,-1267.14"/>
</g>
<!-- 29&#45;&gt;22 -->
<g id="edge5" class="edge"><title>29&#45;&gt;22</title>
<path fill="none" stroke="black" d="M1720.09,-1375.99C1688.85,-1363.71 1632.72,-1341.63 1597.24,-1327.68"/>
<polygon fill="black" stroke="black" points="1598.41,-1324.38 1587.82,-1323.97 1595.84,-1330.89 1598.41,-1324.38"/>
</g>
<!-- 29&#45;&gt;18 -->
<g id="edge30" class="edge"><title>29&#45;&gt;18</title>
<path fill="none" stroke="black" d="M1766.44,-1376.95C1803.21,-1364.17 1871.19,-1339.89 1880,-1332 2004.12,-1220.9 2226,-833.584 2226,-667 2226,-667 2226,-667 2226,-593 2226,-461.477 2302,-438.523 2302,-307 2302,-307 2302,-307 2302,-161 2302,-109.368 2621.06,-180.858 2069,-72 1895.78,-37.8445 1337,-23.1669 1187.23,-19.7878"/>
<polygon fill="black" stroke="black" points="1187.24,-16.2872 1177.16,-19.5639 1187.08,-23.2855 1187.24,-16.2872"/>
</g>
<!-- 29&#45;&gt;25 -->
<g id="edge26" class="edge"><title>29&#45;&gt;25</title>
<path fill="none" stroke="black" d="M1739.4,-1368.13C1737.69,-1336.65 1737.87,-1268.18 1706,-1224 1646.67,-1141.76 1590.29,-1170.87 1505,-1116 1438.32,-1073.1 1430.66,-1049.34 1363,-1008 1115.97,-857.074 791.891,-723.066 691.119,-680.799"/>
<polygon fill="black" stroke="black" points="692.381,-677.533 681.806,-676.885 689.669,-683.986 692.381,-677.533"/>
</g>
<!-- 29&#45;&gt;25 -->
<g id="edge73" class="edge"><title>29&#45;&gt;25</title>
<path fill="none" stroke="black" d="M1749.8,-1368.13C1755.69,-1336.65 1755.87,-1268.18 1724,-1224 1664.67,-1141.76 1608.29,-1170.87 1523,-1116 1456.32,-1073.1 1448.66,-1049.34 1381,-1008 1129.47,-854.326 798.063,-718.191 693.166,-678.582"/>
<polygon fill="black" stroke="black" points="694.325,-675.279 683.732,-675.053 691.872,-681.835 694.325,-675.279"/>
</g>
<!-- 30&#45;&gt;24 -->
<g id="edge32" class="edge"><title>30&#45;&gt;24</title>
<path fill="none" stroke="black" d="M1529.06,-1658.15C1520.81,-1648.69 1509.96,-1636.24 1500.66,-1625.56"/>
<polygon fill="black" stroke="black" points="1503.13,-1623.06 1493.92,-1617.82 1497.85,-1627.66 1503.13,-1623.06"/>
</g>
<!-- 30&#45;&gt;12 -->
<g id="edge29" class="edge"><title>30&#45;&gt;12</title>
<path fill="none" stroke="black" d="M1564.28,-1663.65C1585.83,-1654.13 1618.96,-1638.21 1645,-1620 1760.98,-1538.88 1777.63,-1502.78 1879,-1404 2123.59,-1165.66 2264,-1080.51 2264,-739 2264,-739 2264,-739 2264,-593 2264,-496.401 2226,-475.599 2226,-379 2226,-379 2226,-379 2226,-233 2226,-174.819 2177.22,-177.986 2130,-144 2126.89,-141.759 2089.81,-121.635 2062.42,-106.845"/>
<polygon fill="black" stroke="black" points="2064.02,-103.736 2053.56,-102.068 2060.7,-109.896 2064.02,-103.736"/>
</g>
<!-- 30&#45;&gt;29 -->
<g id="edge16" class="edge"><title>30&#45;&gt;29</title>
<path fill="none" stroke="black" d="M1562.72,-1662.16C1579.25,-1652.72 1602.17,-1637.79 1618,-1620 1675.59,-1555.28 1716.2,-1459.35 1733.57,-1413.41"/>
<polygon fill="black" stroke="black" points="1736.91,-1414.47 1737.11,-1403.87 1730.35,-1412.03 1736.91,-1414.47"/>
</g>
<!-- 30&#45;&gt;5 -->
<g id="edge19" class="edge"><title>30&#45;&gt;5</title>
<path fill="none" stroke="black" d="M1515.62,-1669.27C1457.22,-1660.96 1312.64,-1640.05 1192,-1620 859.694,-1564.76 459.263,-1488.89 338.895,-1465.89"/>
<polygon fill="black" stroke="black" points="339.251,-1462.39 328.771,-1463.95 337.936,-1469.27 339.251,-1462.39"/>
</g>
<!-- 26&#45;&gt;3 -->
<g id="edge123" class="edge"><title>26&#45;&gt;3</title>
<path fill="none" stroke="black" d="M636.707,-873.509C596.003,-860.957 513.946,-835.653 467.691,-821.389"/>
<polygon fill="black" stroke="black" points="468.706,-818.04 458.118,-818.437 466.643,-824.729 468.706,-818.04"/>
</g>
<!-- 26&#45;&gt;20 -->
<g id="edge65" class="edge"><title>26&#45;&gt;20</title>
<path fill="none" stroke="black" d="M643.045,-895.573C602.754,-924.46 503.694,-999.313 440,-1080 291.339,-1268.32 269.115,-1361.03 250,-1440 245.069,-1460.37 244.801,-1484.14 245.64,-1501.98"/>
<polygon fill="black" stroke="black" points="242.148,-1502.22 246.254,-1511.99 249.135,-1501.8 242.148,-1502.22"/>
</g>
<!-- 5&#45;&gt;9 -->
<g id="edge46" class="edge"><title>5&#45;&gt;9</title>
<path fill="none" stroke="black" d="M324.635,-1446.97C350.424,-1435.02 393.711,-1414.95 423.04,-1401.35"/>
<polygon fill="black" stroke="black" points="424.805,-1404.39 432.406,-1397.01 421.861,-1398.04 424.805,-1404.39"/>
</g>
</g>
</svg>
