<?xml version="1.0" encoding="UTF-8" standalone="no"?>
<!DOCTYPE svg PUBLIC "-//W3C//DTD SVG 1.1//EN"
 "http://www.w3.org/Graphics/SVG/1.1/DTD/svg11.dtd">
<!-- Generated by graphviz version 2.38.0 (20140413.2041)
 -->
<!-- Title: %3 Pages: 1 -->
<svg width="876pt" height="1124pt"
 viewBox="0.00 0.00 876.00 1124.00" xmlns="http://www.w3.org/2000/svg" xmlns:xlink="http://www.w3.org/1999/xlink">
<g id="graph0" class="graph" transform="scale(1 1) rotate(0) translate(4 1120)">
<title>%3</title>
<polygon fill="white" stroke="none" points="-4,4 -4,-1120 872,-1120 872,4 -4,4"/>
<!-- 0 -->
<g id="node1" class="node"><title>0</title>
<ellipse fill="red" stroke="red" cx="114" cy="-1098" rx="27" ry="18"/>
<text text-anchor="middle" x="114" y="-1094.3" font-family="Times,serif" font-size="14.00">0</text>
</g>
<!-- 0&#45;&gt;0 -->
<g id="edge8" class="edge"><title>0&#45;&gt;0</title>
<path fill="none" stroke="black" d="M133.895,-1110.43C146.688,-1113.68 159,-1109.53 159,-1098 159,-1089.62 152.501,-1085.14 144.039,-1084.56"/>
<polygon fill="black" stroke="black" points="143.502,-1081.1 133.895,-1085.57 144.191,-1088.07 143.502,-1081.1"/>
</g>
<!-- 12 -->
<g id="node9" class="node"><title>12</title>
<ellipse fill="red" stroke="red" cx="295" cy="-1026" rx="27" ry="18"/>
<text text-anchor="middle" x="295" y="-1022.3" font-family="Times,serif" font-size="14.00">12</text>
</g>
<!-- 0&#45;&gt;12 -->
<g id="edge2" class="edge"><title>0&#45;&gt;12</title>
<path fill="none" stroke="black" d="M136.924,-1088.13C168.748,-1075.83 226.474,-1053.5 262.665,-1039.51"/>
<polygon fill="black" stroke="black" points="264.198,-1042.67 272.262,-1035.79 261.673,-1036.14 264.198,-1042.67"/>
</g>
<!-- 4 -->
<g id="node12" class="node"><title>4</title>
<ellipse fill="red" stroke="red" cx="432" cy="-234" rx="27" ry="18"/>
<text text-anchor="middle" x="432" y="-230.3" font-family="Times,serif" font-size="14.00">4</text>
</g>
<!-- 0&#45;&gt;4 -->
<g id="edge19" class="edge"><title>0&#45;&gt;4</title>
<path fill="none" stroke="black" d="M99.705,-1082.23C77.6896,-1057.85 38,-1006.73 38,-955 38,-955 38,-955 38,-737 38,-499.747 313.698,-308.151 403.849,-251.843"/>
<polygon fill="black" stroke="black" points="405.792,-254.756 412.461,-246.524 402.114,-248.8 405.792,-254.756"/>
</g>
<!-- 3 -->
<g id="node2" class="node"><title>3</title>
<ellipse fill="red" stroke="red" cx="347" cy="-18" rx="27" ry="18"/>
<text text-anchor="middle" x="347" y="-14.3" font-family="Times,serif" font-size="14.00">3</text>
</g>
<!-- 3&#45;&gt;0 -->
<g id="edge30" class="edge"><title>3&#45;&gt;0</title>
<path fill="none" stroke="black" d="M321.202,-23.7507C240.784,-39.2859 0,-91.5955 0,-161 0,-955 0,-955 0,-955 0,-1009.85 52.3606,-1055.58 86.1102,-1079.35"/>
<polygon fill="black" stroke="black" points="84.4293,-1082.44 94.6615,-1085.19 88.3767,-1076.66 84.4293,-1082.44"/>
</g>
<!-- 9 -->
<g id="node3" class="node"><title>9</title>
<ellipse fill="red" stroke="red" cx="347" cy="-90" rx="27" ry="18"/>
<text text-anchor="middle" x="347" y="-86.3" font-family="Times,serif" font-size="14.00">9</text>
</g>
<!-- 9&#45;&gt;3 -->
<g id="edge33" class="edge"><title>9&#45;&gt;3</title>
<path fill="none" stroke="black" d="M347,-71.6966C347,-63.9827 347,-54.7125 347,-46.1124"/>
<polygon fill="black" stroke="black" points="350.5,-46.1043 347,-36.1043 343.5,-46.1044 350.5,-46.1043"/>
</g>
<!-- 11 -->
<g id="node6" class="node"><title>11</title>
<ellipse fill="red" stroke="red" cx="406" cy="-810" rx="27" ry="18"/>
<text text-anchor="middle" x="406" y="-806.3" font-family="Times,serif" font-size="14.00">11</text>
</g>
<!-- 9&#45;&gt;11 -->
<g id="edge36" class="edge"><title>9&#45;&gt;11</title>
<path fill="none" stroke="black" d="M319.849,-91.1173C244.447,-93.0068 38,-109.46 38,-233 38,-523 38,-523 38,-523 38,-690.876 279.707,-774.493 371.343,-800.162"/>
<polygon fill="black" stroke="black" points="370.426,-803.54 380.995,-802.806 372.275,-796.789 370.426,-803.54"/>
</g>
<!-- 6 -->
<g id="node8" class="node"><title>6</title>
<ellipse fill="red" stroke="red" cx="546" cy="-954" rx="27" ry="18"/>
<text text-anchor="middle" x="546" y="-950.3" font-family="Times,serif" font-size="14.00">6</text>
</g>
<!-- 9&#45;&gt;6 -->
<g id="edge43" class="edge"><title>9&#45;&gt;6</title>
<path fill="none" stroke="black" d="M374.251,-90.9507C432.229,-91.7788 571.075,-98.7597 676,-144 735.671,-169.728 792,-168.018 792,-233 792,-667 792,-667 792,-667 792,-707.794 729.36,-868.529 694,-900 657.776,-932.24 636.575,-919.43 591,-936 586.938,-937.477 582.68,-939.051 578.47,-940.623"/>
<polygon fill="black" stroke="black" points="576.979,-937.445 568.852,-944.241 579.444,-943.997 576.979,-937.445"/>
</g>
<!-- 2 -->
<g id="node4" class="node"><title>2</title>
<ellipse fill="red" stroke="red" cx="245" cy="-666" rx="27" ry="18"/>
<text text-anchor="middle" x="245" y="-662.3" font-family="Times,serif" font-size="14.00">2</text>
</g>
<!-- 2&#45;&gt;9 -->
<g id="edge61" class="edge"><title>2&#45;&gt;9</title>
<path fill="none" stroke="black" d="M237.226,-648.654C214.208,-598.705 148,-443.193 148,-307 148,-307 148,-307 148,-233 148,-153.524 254.475,-114.339 311.658,-99.0262"/>
<polygon fill="black" stroke="black" points="312.579,-102.403 321.392,-96.5225 310.835,-95.6241 312.579,-102.403"/>
</g>
<!-- 2&#45;&gt;11 -->
<g id="edge54" class="edge"><title>2&#45;&gt;11</title>
<path fill="none" stroke="black" d="M257.302,-682.144C272.75,-700.678 300.567,-732.49 328,-756 343.588,-769.359 362.619,-782.346 377.98,-792.122"/>
<polygon fill="black" stroke="black" points="376.213,-795.145 386.547,-797.484 379.928,-789.212 376.213,-795.145"/>
</g>
<!-- 2&#45;&gt;6 -->
<g id="edge4" class="edge"><title>2&#45;&gt;6</title>
<path fill="none" stroke="black" d="M250.571,-683.885C257.294,-702.686 269.868,-733.397 287,-756 351.869,-841.582 463.203,-908.685 516.233,-937.566"/>
<polygon fill="black" stroke="black" points="514.667,-940.698 525.132,-942.351 517.982,-934.533 514.667,-940.698"/>
</g>
<!-- 13 -->
<g id="node10" class="node"><title>13</title>
<ellipse fill="red" stroke="red" cx="321" cy="-594" rx="27" ry="18"/>
<text text-anchor="middle" x="321" y="-590.3" font-family="Times,serif" font-size="14.00">13</text>
</g>
<!-- 2&#45;&gt;13 -->
<g id="edge15" class="edge"><title>2&#45;&gt;13</title>
<path fill="none" stroke="black" d="M260.38,-650.834C271.196,-640.872 285.857,-627.369 298.051,-616.137"/>
<polygon fill="black" stroke="black" points="300.659,-618.494 305.643,-609.144 295.916,-613.345 300.659,-618.494"/>
</g>
<!-- 1 -->
<g id="node5" class="node"><title>1</title>
<ellipse fill="red" stroke="red" cx="406" cy="-738" rx="27" ry="18"/>
<text text-anchor="middle" x="406" y="-734.3" font-family="Times,serif" font-size="14.00">1</text>
</g>
<!-- 1&#45;&gt;2 -->
<g id="edge52" class="edge"><title>1&#45;&gt;2</title>
<path fill="none" stroke="black" d="M383.951,-727.414C356.088,-715.299 307.956,-694.372 276.296,-680.607"/>
<polygon fill="black" stroke="black" points="277.607,-677.36 267.04,-676.583 274.815,-683.78 277.607,-677.36"/>
</g>
<!-- 1&#45;&gt;6 -->
<g id="edge12" class="edge"><title>1&#45;&gt;6</title>
<path fill="none" stroke="black" d="M416.856,-754.674C424.076,-765.174 433.719,-779.34 442,-792 473.051,-839.468 478.949,-852.532 510,-900 516.211,-909.495 523.188,-919.837 529.334,-928.845"/>
<polygon fill="black" stroke="black" points="526.605,-931.054 535.144,-937.326 532.38,-927.098 526.605,-931.054"/>
</g>
<!-- 1&#45;&gt;12 -->
<g id="edge49" class="edge"><title>1&#45;&gt;12</title>
<path fill="none" stroke="black" d="M393.851,-754.577C386.279,-764.803 376.731,-778.701 370,-792 334.292,-862.555 310.868,-953.647 300.737,-998.142"/>
<polygon fill="black" stroke="black" points="297.319,-997.388 298.557,-1007.91 304.151,-998.912 297.319,-997.388"/>
</g>
<!-- 1&#45;&gt;13 -->
<g id="edge7" class="edge"><title>1&#45;&gt;13</title>
<path fill="none" stroke="black" d="M392.181,-722.499C382.897,-712.273 370.798,-697.963 362,-684 349.373,-663.962 338.355,-639.397 330.929,-621.155"/>
<polygon fill="black" stroke="black" points="334.133,-619.74 327.186,-611.74 327.628,-622.326 334.133,-619.74"/>
</g>
<!-- 8 -->
<g id="node11" class="node"><title>8</title>
<ellipse fill="red" stroke="red" cx="347" cy="-162" rx="27" ry="18"/>
<text text-anchor="middle" x="347" y="-158.3" font-family="Times,serif" font-size="14.00">8</text>
</g>
<!-- 1&#45;&gt;8 -->
<g id="edge56" class="edge"><title>1&#45;&gt;8</title>
<path fill="none" stroke="black" d="M400.073,-720.194C391.33,-693.86 376,-641.11 376,-595 376,-595 376,-595 376,-449 376,-353.451 359.78,-240.858 351.601,-190.155"/>
<polygon fill="black" stroke="black" points="355.012,-189.326 349.94,-180.024 348.104,-190.459 355.012,-189.326"/>
</g>
<!-- 15 -->
<g id="node16" class="node"><title>15</title>
<ellipse fill="red" stroke="red" cx="677" cy="-522" rx="27" ry="18"/>
<text text-anchor="middle" x="677" y="-518.3" font-family="Times,serif" font-size="14.00">15</text>
</g>
<!-- 1&#45;&gt;15 -->
<g id="edge18" class="edge"><title>1&#45;&gt;15</title>
<path fill="none" stroke="black" d="M420.606,-722.627C464.388,-684.832 593.577,-582.719 650.162,-541.063"/>
<polygon fill="black" stroke="black" points="652.264,-543.863 658.281,-535.143 648.139,-538.207 652.264,-543.863"/>
</g>
<!-- 11&#45;&gt;1 -->
<g id="edge17" class="edge"><title>11&#45;&gt;1</title>
<path fill="none" stroke="black" d="M406,-791.697C406,-783.983 406,-774.712 406,-766.112"/>
<polygon fill="black" stroke="black" points="409.5,-766.104 406,-756.104 402.5,-766.104 409.5,-766.104"/>
</g>
<!-- 11&#45;&gt;12 -->
<g id="edge22" class="edge"><title>11&#45;&gt;12</title>
<path fill="none" stroke="black" d="M397.597,-827.2C378.419,-864.173 331.303,-955.011 308.202,-999.547"/>
<polygon fill="black" stroke="black" points="305.023,-998.075 303.526,-1008.56 311.237,-1001.3 305.023,-998.075"/>
</g>
<!-- 7 -->
<g id="node13" class="node"><title>7</title>
<ellipse fill="red" stroke="red" cx="487" cy="-306" rx="27" ry="18"/>
<text text-anchor="middle" x="487" y="-302.3" font-family="Times,serif" font-size="14.00">7</text>
</g>
<!-- 11&#45;&gt;7 -->
<g id="edge21" class="edge"><title>11&#45;&gt;7</title>
<path fill="none" stroke="black" d="M428.302,-799.789C483.49,-775.345 622,-703.216 622,-595 622,-595 622,-595 622,-521 622,-438.774 549.823,-362.38 511.02,-327.252"/>
<polygon fill="black" stroke="black" points="513.089,-324.409 503.284,-320.395 508.446,-329.647 513.089,-324.409"/>
</g>
<!-- 5 -->
<g id="node7" class="node"><title>5</title>
<ellipse fill="red" stroke="red" cx="546" cy="-882" rx="27" ry="18"/>
<text text-anchor="middle" x="546" y="-878.3" font-family="Times,serif" font-size="14.00">5</text>
</g>
<!-- 5&#45;&gt;11 -->
<g id="edge25" class="edge"><title>5&#45;&gt;11</title>
<path fill="none" stroke="black" d="M523.282,-871.992C498.79,-860.876 460.143,-841.747 433.871,-827.871"/>
<polygon fill="black" stroke="black" points="435.27,-824.65 424.801,-823.02 431.969,-830.822 435.27,-824.65"/>
</g>
<!-- 5&#45;&gt;11 -->
<g id="edge37" class="edge"><title>5&#45;&gt;11</title>
<path fill="none" stroke="black" d="M527.175,-868.967C504.227,-856.518 465.511,-837.13 437.926,-824.251"/>
<polygon fill="black" stroke="black" points="439.223,-820.995 428.676,-819.989 436.294,-827.353 439.223,-820.995"/>
</g>
<!-- 5&#45;&gt;6 -->
<g id="edge9" class="edge"><title>5&#45;&gt;6</title>
<path fill="none" stroke="black" d="M551.879,-899.956C552.714,-907.827 552.948,-917.374 552.583,-926.187"/>
<polygon fill="black" stroke="black" points="549.074,-926.184 551.84,-936.411 556.056,-926.691 549.074,-926.184"/>
</g>
<!-- 10 -->
<g id="node14" class="node"><title>10</title>
<ellipse fill="red" stroke="red" cx="487" cy="-378" rx="27" ry="18"/>
<text text-anchor="middle" x="487" y="-374.3" font-family="Times,serif" font-size="14.00">10</text>
</g>
<!-- 5&#45;&gt;10 -->
<g id="edge58" class="edge"><title>5&#45;&gt;10</title>
<path fill="none" stroke="black" d="M553.508,-864.338C564.582,-838.197 584,-785.702 584,-739 584,-739 584,-739 584,-521 584,-469.968 540.756,-423.778 512.015,-398.714"/>
<polygon fill="black" stroke="black" points="514.236,-396.008 504.342,-392.219 509.713,-401.351 514.236,-396.008"/>
</g>
<!-- 14 -->
<g id="node15" class="node"><title>14</title>
<ellipse fill="red" stroke="red" cx="487" cy="-450" rx="27" ry="18"/>
<text text-anchor="middle" x="487" y="-446.3" font-family="Times,serif" font-size="14.00">14</text>
</g>
<!-- 5&#45;&gt;14 -->
<g id="edge64" class="edge"><title>5&#45;&gt;14</title>
<path fill="none" stroke="black" d="M546,-863.951C546,-837.292 546,-784.115 546,-739 546,-739 546,-739 546,-593 546,-548.868 521.397,-502.519 503.966,-475.22"/>
<polygon fill="black" stroke="black" points="506.796,-473.153 498.376,-466.722 500.948,-477 506.796,-473.153"/>
</g>
<!-- 5&#45;&gt;15 -->
<g id="edge45" class="edge"><title>5&#45;&gt;15</title>
<path fill="none" stroke="black" d="M563.532,-868.214C595.765,-846.626 660,-799.338 660,-739 660,-739 660,-739 660,-665 660,-624.714 663.25,-578.1 667.936,-549.588"/>
<polygon fill="black" stroke="black" points="671.407,-550.07 669.799,-539.598 664.525,-548.786 671.407,-550.07"/>
</g>
<!-- 6&#45;&gt;5 -->
<g id="edge3" class="edge"><title>6&#45;&gt;5</title>
<path fill="none" stroke="black" d="M540.16,-936.411C539.297,-928.507 539.048,-918.852 539.412,-909.935"/>
<polygon fill="black" stroke="black" points="542.903,-910.179 540.121,-899.956 535.921,-909.683 542.903,-910.179"/>
</g>
<!-- 12&#45;&gt;3 -->
<g id="edge32" class="edge"><title>12&#45;&gt;3</title>
<path fill="none" stroke="black" d="M321.897,-1023.74C430.386,-1017.93 830,-989.308 830,-883 830,-883 830,-883 830,-737 830,-640.401 868,-619.599 868,-523 868,-523 868,-523 868,-161 868,-60.5541 502.967,-28.7723 383.997,-21.0815"/>
<polygon fill="black" stroke="black" points="384.113,-17.582 373.914,-20.4497 383.676,-24.5683 384.113,-17.582"/>
</g>
<!-- 12&#45;&gt;6 -->
<g id="edge24" class="edge"><title>12&#45;&gt;6</title>
<path fill="none" stroke="black" d="M319.524,-1018.16C364.51,-1005.61 460.312,-978.897 511.716,-964.561"/>
<polygon fill="black" stroke="black" points="512.684,-967.925 521.377,-961.867 510.804,-961.182 512.684,-967.925"/>
</g>
<!-- 12&#45;&gt;12 -->
<g id="edge10" class="edge"><title>12&#45;&gt;12</title>
<path fill="none" stroke="black" d="M314.895,-1038.43C327.688,-1041.68 340,-1037.53 340,-1026 340,-1017.62 333.501,-1013.14 325.039,-1012.56"/>
<polygon fill="black" stroke="black" points="324.502,-1009.1 314.895,-1013.57 325.191,-1016.07 324.502,-1009.1"/>
</g>
<!-- 13&#45;&gt;0 -->
<g id="edge41" class="edge"><title>13&#45;&gt;0</title>
<path fill="none" stroke="black" d="M294.909,-598.937C265.121,-604.723 216.69,-618.252 187,-648 156.974,-678.085 152,-694.496 152,-737 152,-955 152,-955 152,-955 152,-996.594 136.597,-1042.78 125.404,-1070.86"/>
<polygon fill="black" stroke="black" points="122.072,-1069.76 121.508,-1080.34 128.546,-1072.42 122.072,-1069.76"/>
</g>
<!-- 13&#45;&gt;9 -->
<g id="edge40" class="edge"><title>13&#45;&gt;9</title>
<path fill="none" stroke="black" d="M303.658,-579.781C275.758,-556.865 224,-506.83 224,-451 224,-451 224,-451 224,-233 224,-175.872 281.581,-130.443 317.948,-107.448"/>
<polygon fill="black" stroke="black" points="319.991,-110.301 326.689,-102.092 316.334,-104.332 319.991,-110.301"/>
</g>
<!-- 13&#45;&gt;11 -->
<g id="edge31" class="edge"><title>13&#45;&gt;11</title>
<path fill="none" stroke="black" d="M323.067,-612.015C325.541,-630.14 330.337,-659.531 338,-684 348.465,-717.418 352.983,-725.394 370,-756 375.513,-765.916 382.348,-776.344 388.577,-785.302"/>
<polygon fill="black" stroke="black" points="385.891,-787.565 394.531,-793.696 391.6,-783.515 385.891,-787.565"/>
</g>
<!-- 13&#45;&gt;12 -->
<g id="edge46" class="edge"><title>13&#45;&gt;12</title>
<path fill="none" stroke="black" d="M295.536,-600.137C269.734,-606.709 230.629,-620.675 209,-648 183.897,-679.714 190,-696.553 190,-737 190,-883 190,-883 190,-883 190,-935.688 237.313,-981.626 268.419,-1006.13"/>
<polygon fill="black" stroke="black" points="266.639,-1009.18 276.71,-1012.47 270.887,-1003.62 266.639,-1009.18"/>
</g>
<!-- 13&#45;&gt;4 -->
<g id="edge39" class="edge"><title>13&#45;&gt;4</title>
<path fill="none" stroke="black" d="M326.789,-576.095C341.196,-533.819 379.55,-420.003 408,-324 414.138,-303.288 420.476,-279.674 425.096,-261.977"/>
<polygon fill="black" stroke="black" points="428.612,-262.359 427.734,-251.801 421.836,-260.603 428.612,-262.359"/>
</g>
<!-- 13&#45;&gt;15 -->
<g id="edge44" class="edge"><title>13&#45;&gt;15</title>
<path fill="none" stroke="black" d="M345.627,-586.54C407.68,-572.927 567.716,-541.489 640.582,-528.633"/>
<polygon fill="black" stroke="black" points="641.427,-532.039 650.678,-526.876 640.226,-525.143 641.427,-532.039"/>
</g>
<!-- 8&#45;&gt;9 -->
<g id="edge26" class="edge"><title>8&#45;&gt;9</title>
<path fill="none" stroke="black" d="M347,-143.697C347,-135.983 347,-126.712 347,-118.112"/>
<polygon fill="black" stroke="black" points="350.5,-118.104 347,-108.104 343.5,-118.104 350.5,-118.104"/>
</g>
<!-- 8&#45;&gt;13 -->
<g id="edge5" class="edge"><title>8&#45;&gt;13</title>
<path fill="none" stroke="black" d="M328.06,-174.924C314.433,-184.452 296.647,-198.996 286,-216 264.258,-250.723 262,-264.031 262,-305 262,-451 262,-451 262,-451 262,-495.132 286.603,-541.481 304.034,-568.78"/>
<polygon fill="black" stroke="black" points="301.204,-570.847 309.624,-577.278 307.052,-567 301.204,-570.847"/>
</g>
<!-- 8&#45;&gt;10 -->
<g id="edge6" class="edge"><title>8&#45;&gt;10</title>
<path fill="none" stroke="black" d="M360.792,-177.816C372.584,-195.751 388.913,-226.695 405,-252 427.83,-287.912 457.282,-327.282 474.262,-352.055"/>
<polygon fill="black" stroke="black" points="471.441,-354.133 479.918,-360.488 477.254,-350.234 471.441,-354.133"/>
</g>
<!-- 4&#45;&gt;9 -->
<g id="edge16" class="edge"><title>4&#45;&gt;9</title>
<path fill="none" stroke="black" d="M423.593,-216.663C414.17,-198.612 398.211,-168.812 383,-144 377.07,-134.327 370.15,-123.949 363.971,-114.962"/>
<polygon fill="black" stroke="black" points="366.684,-112.732 358.103,-106.517 360.935,-116.727 366.684,-112.732"/>
</g>
<!-- 4&#45;&gt;8 -->
<g id="edge38" class="edge"><title>4&#45;&gt;8</title>
<path fill="none" stroke="black" d="M412.364,-221.125C398.756,-211.213 380.917,-196.821 367.211,-184.838"/>
<polygon fill="black" stroke="black" points="369.473,-182.165 359.683,-178.114 364.809,-187.386 369.473,-182.165"/>
</g>
<!-- 4&#45;&gt;8 -->
<g id="edge47" class="edge"><title>4&#45;&gt;8</title>
<path fill="none" stroke="black" d="M419.235,-217.811C407.3,-206.886 389.463,-192.122 374.409,-180.67"/>
<polygon fill="black" stroke="black" points="376.497,-177.861 366.387,-174.693 372.315,-183.474 376.497,-177.861"/>
</g>
<!-- 4&#45;&gt;15 -->
<g id="edge48" class="edge"><title>4&#45;&gt;15</title>
<path fill="none" stroke="black" d="M455.395,-243.27C476.7,-252.865 507.769,-269.725 532,-288 568.891,-315.824 579.194,-323.096 607,-360 628.774,-388.899 628.98,-399.556 645,-432 655.2,-452.657 666.082,-476.364 672.737,-494.114"/>
<polygon fill="black" stroke="black" points="669.523,-495.526 676.131,-503.809 676.13,-493.214 669.523,-495.526"/>
</g>
<!-- 7&#45;&gt;0 -->
<g id="edge1" class="edge"><title>7&#45;&gt;0</title>
<path fill="none" stroke="black" d="M508.027,-317.379C587.899,-358.446 868,-518.068 868,-737 868,-955 868,-955 868,-955 868,-1028.82 302.616,-1081.27 151.022,-1094.01"/>
<polygon fill="black" stroke="black" points="150.51,-1090.54 140.835,-1094.86 151.091,-1097.51 150.51,-1090.54"/>
</g>
<!-- 7&#45;&gt;4 -->
<g id="edge28" class="edge"><title>7&#45;&gt;4</title>
<path fill="none" stroke="black" d="M470.937,-291.503C462.588,-282.475 452.705,-270.33 444.86,-259.613"/>
<polygon fill="black" stroke="black" points="447.699,-257.566 439.075,-251.412 441.979,-261.601 447.699,-257.566"/>
</g>
<!-- 7&#45;&gt;4 -->
<g id="edge55" class="edge"><title>7&#45;&gt;4</title>
<path fill="none" stroke="black" d="M479.806,-288.411C473.331,-278.841 463.939,-266.703 455.104,-256.417"/>
<polygon fill="black" stroke="black" points="457.462,-253.802 448.204,-248.65 452.229,-258.451 457.462,-253.802"/>
</g>
<!-- 7&#45;&gt;10 -->
<g id="edge14" class="edge"><title>7&#45;&gt;10</title>
<path fill="none" stroke="black" d="M492.879,-323.956C493.714,-331.827 493.948,-341.374 493.583,-350.187"/>
<polygon fill="black" stroke="black" points="490.074,-350.184 492.84,-360.411 497.056,-350.691 490.074,-350.184"/>
</g>
<!-- 10&#45;&gt;8 -->
<g id="edge59" class="edge"><title>10&#45;&gt;8</title>
<path fill="none" stroke="black" d="M470.769,-363.524C449.687,-341.029 413.786,-294.135 387,-252 373.986,-231.528 360.812,-207.366 352.803,-189.386"/>
<polygon fill="black" stroke="black" points="356.005,-187.972 348.918,-180.097 349.547,-190.673 356.005,-187.972"/>
</g>
<!-- 10&#45;&gt;7 -->
<g id="edge29" class="edge"><title>10&#45;&gt;7</title>
<path fill="none" stroke="black" d="M481.16,-360.411C480.297,-352.507 480.048,-342.852 480.412,-333.935"/>
<polygon fill="black" stroke="black" points="483.903,-334.179 481.121,-323.956 476.921,-333.683 483.903,-334.179"/>
</g>
<!-- 14&#45;&gt;0 -->
<g id="edge53" class="edge"><title>14&#45;&gt;0</title>
<path fill="none" stroke="black" d="M461.29,-455.757C371.312,-474.027 76,-548.362 76,-737 76,-955 76,-955 76,-955 76,-996.594 91.4027,-1042.78 102.596,-1070.86"/>
<polygon fill="black" stroke="black" points="99.4536,-1072.42 106.492,-1080.34 105.928,-1069.76 99.4536,-1072.42"/>
</g>
<!-- 14&#45;&gt;2 -->
<g id="edge63" class="edge"><title>14&#45;&gt;2</title>
<path fill="none" stroke="black" d="M464.234,-459.73C423.272,-476.475 336.621,-516.775 285,-576 269.244,-594.077 258.682,-619.376 252.388,-638.382"/>
<polygon fill="black" stroke="black" points="249.043,-637.353 249.402,-647.941 255.724,-639.439 249.043,-637.353"/>
</g>
<!-- 14&#45;&gt;1 -->
<g id="edge13" class="edge"><title>14&#45;&gt;1</title>
<path fill="none" stroke="black" d="M482.201,-467.945C468.67,-515.722 430.126,-651.815 413.636,-710.039"/>
<polygon fill="black" stroke="black" points="410.182,-709.391 410.824,-719.966 416.917,-711.298 410.182,-709.391"/>
</g>
<!-- 14&#45;&gt;11 -->
<g id="edge34" class="edge"><title>14&#45;&gt;11</title>
<path fill="none" stroke="black" d="M487.286,-468.276C487.489,-516.001 484.084,-652.929 442,-756 437.774,-766.349 431.318,-776.741 425.034,-785.547"/>
<polygon fill="black" stroke="black" points="422.077,-783.658 418.896,-793.764 427.685,-787.847 422.077,-783.658"/>
</g>
<!-- 14&#45;&gt;10 -->
<g id="edge35" class="edge"><title>14&#45;&gt;10</title>
<path fill="none" stroke="black" d="M487,-431.697C487,-423.983 487,-414.712 487,-406.112"/>
<polygon fill="black" stroke="black" points="490.5,-406.104 487,-396.104 483.5,-406.104 490.5,-406.104"/>
</g>
<!-- 14&#45;&gt;14 -->
<g id="edge27" class="edge"><title>14&#45;&gt;14</title>
<path fill="none" stroke="black" d="M506.895,-462.432C519.688,-465.675 532,-461.531 532,-450 532,-441.622 525.501,-437.143 517.039,-436.564"/>
<polygon fill="black" stroke="black" points="516.502,-433.1 506.895,-437.568 517.191,-440.066 516.502,-433.1"/>
</g>
<!-- 15&#45;&gt;9 -->
<g id="edge60" class="edge"><title>15&#45;&gt;9</title>
<path fill="none" stroke="black" d="M691.123,-506.655C713.352,-482.487 754,-431.162 754,-379 754,-379 754,-379 754,-233 754,-154.848 483.094,-109.7 383.321,-95.7219"/>
<polygon fill="black" stroke="black" points="383.775,-92.2514 373.391,-94.3549 382.82,-99.186 383.775,-92.2514"/>
</g>
<!-- 15&#45;&gt;1 -->
<g id="edge23" class="edge"><title>15&#45;&gt;1</title>
<path fill="none" stroke="black" d="M662.289,-537.464C618.396,-575.34 489.312,-677.367 432.794,-718.969"/>
<polygon fill="black" stroke="black" points="430.703,-716.162 424.685,-724.881 434.827,-721.818 430.703,-716.162"/>
</g>
<!-- 15&#45;&gt;5 -->
<g id="edge42" class="edge"><title>15&#45;&gt;5</title>
<path fill="none" stroke="black" d="M681.132,-540.032C682.088,-566.668 678,-619.814 678,-665 678,-739 678,-739 678,-739 678,-798.031 616.52,-844.57 577.311,-866.775"/>
<polygon fill="black" stroke="black" points="575.471,-863.791 568.354,-871.64 578.812,-869.942 575.471,-863.791"/>
</g>
<!-- 15&#45;&gt;6 -->
<g id="edge20" class="edge"><title>15&#45;&gt;6</title>
<path fill="none" stroke="black" d="M684.705,-539.642C696.071,-565.756 716,-618.215 716,-665 716,-811 716,-811 716,-811 716,-881.335 629.225,-923.651 579.668,-942.082"/>
<polygon fill="black" stroke="black" points="578.226,-938.881 569.996,-945.553 580.591,-945.47 578.226,-938.881"/>
</g>
<!-- 15&#45;&gt;12 -->
<g id="edge51" class="edge"><title>15&#45;&gt;12</title>
<path fill="none" stroke="black" d="M690.984,-537.551C699.818,-547.577 710.714,-561.638 717,-576 730.038,-605.789 727.1,-615.612 730,-648 740.091,-760.686 769.107,-815.39 694,-900 598.418,-1007.68 411.431,-1023.54 332.054,-1025.22"/>
<polygon fill="black" stroke="black" points="331.979,-1021.72 322.031,-1025.37 332.082,-1028.72 331.979,-1021.72"/>
</g>
<!-- 15&#45;&gt;13 -->
<g id="edge50" class="edge"><title>15&#45;&gt;13</title>
<path fill="none" stroke="black" d="M651.151,-528.083C588.441,-540.413 428.132,-571.935 356.505,-586.019"/>
<polygon fill="black" stroke="black" points="355.739,-582.602 346.603,-587.966 357.09,-589.471 355.739,-582.602"/>
</g>
<!-- 15&#45;&gt;13 -->
<g id="edge57" class="edge"><title>15&#45;&gt;13</title>
<path fill="none" stroke="black" d="M652.355,-529.464C590.266,-543.084 430.159,-574.535 357.337,-587.381"/>
<polygon fill="black" stroke="black" points="356.5,-583.974 347.249,-589.137 357.701,-590.87 356.5,-583.974"/>
</g>
<!-- 15&#45;&gt;4 -->
<g id="edge62" class="edge"><title>15&#45;&gt;4</title>
<path fill="none" stroke="black" d="M664.012,-506.082C653.52,-488.308 639.729,-457.779 627,-432 610.98,-399.556 610.774,-388.899 589,-360 561.194,-323.096 550.891,-315.824 514,-288 496.388,-274.717 475.163,-262.182 458.586,-252.64"/>
<polygon fill="black" stroke="black" points="460.322,-249.601 449.906,-247.661 456.839,-255.673 460.322,-249.601"/>
</g>
<!-- 15&#45;&gt;14 -->
<g id="edge11" class="edge"><title>15&#45;&gt;14</title>
<path fill="none" stroke="black" d="M653.702,-512.417C620.137,-500.05 558.02,-477.165 519.821,-463.092"/>
<polygon fill="black" stroke="black" points="520.784,-459.717 510.191,-459.544 518.364,-466.285 520.784,-459.717"/>
</g>
</g>
</svg>
